<svg id="Capa_1" data-name="Capa 1" xmlns="http://www.w3.org/2000/svg" viewBox="0 0 297.37 384"><defs><style>.cls-1{fill:#fff;}</style></defs><title>climbing</title><path class="cls-1" d="M413.27,461.67H266c-.33,0-.78.14-1-.05s-.54-1-.42-1.16c1-1.37,2.15-2.65,3.25-4a14.09,14.09,0,0,0,2-2.49c.9-1.78,2.36-2.93,3.5-4.43a26,26,0,0,1,1.68-2.5c1.16-1.19,2.12-2.9,4.07-2.59.94-.81,2.15-.36,3.11-.79,1.63-.71,3.32-1,4.95-1.56.91-.31,1.94-.22,2.68-.73.92-.63,1.86-.42,2.76-.68,1.18-.35,2.31-.86,3.46-1.3l.09,0c1.25-.29,2.5-.55,3.75-.86a5.14,5.14,0,0,0,1-.49,1.56,1.56,0,0,1,.39-.19,7.82,7.82,0,0,0,2.83-.69c1.15-.65,2.63-.54,3.9-1,1-.38,2.16-.32,3-.76a13.74,13.74,0,0,1,2.59-.71c1.18-.36,2.32-.86,3.48-1.28.22-.08.49,0,.71-.1.51-.17,1-.38,1.52-.58.05,0,.11-.08.16-.08a8.53,8.53,0,0,0,3.37-.83c.94-.39,2-.54,2.93-.84.17-.06.25-.42.43-.57.68-.58,1.4-1.09,2.07-1.69s1.35-1.4,2.07-2,1.51-1.11,2.22-1.73,1.23-1.25,1.88-1.84,1.56-1.27,2.33-1.93,1.2-1.15,1.81-1.7c.78-.7,1.59-1.36,2.36-2.07.41-.37.77-.81,1.18-1.2.58-.56,1.18-1.09,1.77-1.64a26.17,26.17,0,0,0,3.21-2.87,14.11,14.11,0,0,1,2.36-1.82c.62-.5,1.18-1.08,1.76-1.64a16.62,16.62,0,0,1,1.95-1.9,9.25,9.25,0,0,1,4.27-1.72,11.36,11.36,0,0,0,3-1.26l.09,0c1.12-.29,2.24-.55,3.36-.86a4.42,4.42,0,0,0,.82-.4,2.16,2.16,0,0,1,.39-.22,14.13,14.13,0,0,0,3.47-1c1-.59,2.34-.2,3.15-1.31,0,0,.05,0,.08,0,1.16-.29,2.33-.52,3.46-.89s2.22-.85,3.34-1.28a4,4,0,0,1,.69-.14c.54-.08,1.17.11,1.48-.64,0,0,.11-.06.16-.07,1.21-.3,2.43-.52,3.61-.9s2.1-.84,3.14-1.26a.65.65,0,0,1,.26-.08,4.88,4.88,0,0,0,2.22-.65c.93-.58,2.13-.58,3.17-1a10.26,10.26,0,0,0,1.91-1.12c.58-.37,1.14-.78,1.7-1.2.26-.19.48-.44.74-.65.91-.71,1.81-1.44,2.74-2.11a15.47,15.47,0,0,0,1.59-.94c.79-.75,1.89-.9,2.57-1.88.34-.48,1-.66,1.48-1,.89-.7,2-1,2.74-2,.38-.49,1.06-.66,1.58-1,.9-.64,1.76-1.34,2.66-2s1.95-1.22,2.92-1.85c.35-.22.68-.48,1-.73a42.11,42.11,0,0,1,3.76-2.84c1.45-.87,2.85-2.09,4.72-1.68a7.38,7.38,0,0,0,2.15,0,8.7,8.7,0,0,0,3.32-.46,7.62,7.62,0,0,1,2.84-.26,17.65,17.65,0,0,0,3.86-.16c2.9-.83,5.91-.18,8.77-.85,2.08-.5,4.14-.24,6.19-.5a2.18,2.18,0,0,1,2.12.81c.82,1,1.54,2.19,2.35,3.25.53.7,1.14,1.31,1.7,2s1.1,1.39,1.66,2.06c.89,1.08,1.81,2.13,2.69,3.22.74.92,1.39,1.95,2.2,2.79.95,1,1.52,2.33,2.62,3.23a17.89,17.89,0,0,1,2.33,3c.59.77,1.21,1.5,1.83,2.25l1.62,2,2,2.49c.74.93,1.44,1.9,2.23,2.79a26.46,26.46,0,0,1,2.23,3.07,27.34,27.34,0,0,0,2.52,2.53c.61.71,1,1.62,1.59,2.41s1,1.36,1.56,2c.35.45.73.87,1.08,1.3.68.83,1.37,1.65,2,2.49a4.62,4.62,0,0,1,.68,1.07,9.29,9.29,0,0,0,2.11,2.75c.61.71,1,1.62,1.6,2.38s1.18,1.34,1.74,2.05c.38.5.67,1.1,1,1.62.54.73,1.14,1.42,1.7,2.15.36.47.72.95,1.06,1.44a7.71,7.71,0,0,0,.92,1.38,10.23,10.23,0,0,1,2,2.58,15.62,15.62,0,0,0,1.59,2.05,11.13,11.13,0,0,1,1,1.28c.75,1.3,1.48,2.45,3.11,2.52a7.84,7.84,0,0,1,3.72.83c1,.61,2,.45,3,.65a3.19,3.19,0,0,1,.84.39,1.93,1.93,0,0,0,.4.21c1.44.3,2.88.58,4.32.87s2.76.25,3.91.89,2.18.41,3.24.69c1.28.33,2.52.82,3.77,1.24l.26.07c1.62.3,3.26.53,4.86.91s3.06.87,4.59,1.32h.09c1.52.29,3.05.56,4.57.88a5.88,5.88,0,0,1,.85.39,2.47,2.47,0,0,0,1.09.29,6,6,0,0,1,3.46.89c.62.3,1.07,1.08,1.56,1.67.34.41.6.89.92,1.31.43.59.88,1.18,1.34,1.75s1,1.26,1.59,1.86,1.2,1.18,1.75,1.82,1,1.36,1.52,2,.93,1.21,1.4,1.8c.32.41.66.79,1,1.2.15.22.37.54.32.73a1,1,0,0,1-.58.59,2.64,2.64,0,0,1-.89,0Z" transform="translate(-264.63 -77.72)"/><path class="cls-1" d="M395.62,77.72c.91.49,1.74.89,2.52,1.39a5.93,5.93,0,0,1,1.18,1.12c.14.14.28.52.21.62-.58.86-1.23,1.66-1.8,2.53-.35.53-.54,1.18-.88,1.71-.6,1-1.29,1.83-1.88,2.8a5.91,5.91,0,0,0-.37,1.45,23.78,23.78,0,0,1,2.58.71c.93.36,1.82.86,2.73,1.3a1.54,1.54,0,0,0,.17.05c1.05.31,2.12.56,3.15.95s1.76.83,2.64,1.26c0,0,0,.06.07.07.86.29,1.74.53,2.59.88s1.64.82,2.46,1.23a2.9,2.9,0,0,0,.41.16,10.32,10.32,0,0,1,2.67.94A30.45,30.45,0,0,0,417,98.34c1.07.57,2.19,1,3.24,1.58s1.84,1.31,2.79,1.91c.65.41,1.41.61,2.06,1,.89.59,1.72,1.31,2.59,2a9,9,0,0,0,1.26.89,7,7,0,0,1,2.32,2.1c.53.68,1.23,1.19,1.79,1.86a5.73,5.73,0,0,1,.71,1.37c.32.73.6,1.49.92,2.22a5.47,5.47,0,0,0,.48.8c0,.08.15.12.17.2.27.8.48,1.63.79,2.41s.7,1.34,1,2,.62,1.45,1,2.15a7,7,0,0,0,1.26,2.32c.4.36.55,1,.87,1.51a23.61,23.61,0,0,0,1.63,2.2c.83,1,1.69,1.91,2.59,2.79a8.55,8.55,0,0,0,1.51,1l2,1.26s.09.1.14.1a5.26,5.26,0,0,1,1.64.65,24,24,0,0,0,3.73.94,30.21,30.21,0,0,0,9.66.6c1.76-.09,3.51-.48,5.27-.68.4,0,1.17.12,1.18.23a7.71,7.71,0,0,1-.22,1.84c-.08.39-.31.76-.38,1.15-.09.6.08,1.27-.54,1.68-.12.09-.12.43-.15.66-.09.73.16,1.58-.64,2.05-.1.07,0,.45-.1.66a8.47,8.47,0,0,1-.44,1c-.05.11-.16.2-.2.31-.28,1-.49,1.95-.84,2.88a16,16,0,0,1-1,1.9c-.33.62-.64,1.24-.94,1.87a13.93,13.93,0,0,1-1.54,3.17c-.73.83-.85,2.11-1.87,2.74-.3.19-.37,1.07-.83,1.52-1.05,1-1.51,2.56-2.62,3.6a25.51,25.51,0,0,0-2.3,3.13c-.34.46-.8.82-1.18,1.24-.55.61-1.07,1.25-1.61,1.87s-1.19,1.29-1.77,2-1.16,1.39-1.78,2-1.07,1-1.62,1.54c-1.11,1-2.2,2-3.34,2.93a16.63,16.63,0,0,1-1.61,1c-.31.21-.58.5-.87.73a13.73,13.73,0,0,1-2.55,2c-1.11.52-2.31,1.66-3.51.9-.9-.57-1.83-.34-2.63-.75a30.82,30.82,0,0,0-4.4-1.58,13.76,13.76,0,0,1-2.15-1.18.85.85,0,0,0-.17-.06c-1-.3-2-.54-3-.93a18.52,18.52,0,0,1-2.17-1.2c-.07,0-.13-.12-.21-.14a19.49,19.49,0,0,1-4.38-2.13c-.64-.35-1.34-.58-2-.94s-1.25-.88-1.9-1.28a7.73,7.73,0,0,1-1.62-1c-.57-.6-1.45-.54-1.93-1.38-.25-.45-.93-.56-1.37-.9a18.71,18.71,0,0,0-1.44-1.27,4.15,4.15,0,0,1-1.49-1,22.22,22.22,0,0,0-1.89-2l-1.66-1.66a21.5,21.5,0,0,1-1.74-1.83c-.73-.94-1.4-1.95-2.06-2.95a7.27,7.27,0,0,1-.72-1.35c-.31-.78-.51-1.62-.84-2.39s-.73-1.42-1.1-2.12a2,2,0,0,1-.17-.23,17.27,17.27,0,0,0-.86-2.28,24.14,24.14,0,0,0-1.84-2.73,31.6,31.6,0,0,0-2.15-2.58c-.66-.7-1.44-1.26-2.12-1.94s-1.83-1-2.64-1.54-1.67-.35-2.37-.74c-2.24-1.26-4.6-.62-6.9-.73a65.43,65.43,0,0,0-7,.15,15.74,15.74,0,0,0-3.28.7,1.85,1.85,0,0,0-.86.79c-.34.54-.58,1.16-.9,1.72s-.8,1.21-1.17,1.84-.62,1.12-.93,1.67c-.22.39-.45.79-.7,1.16-.61.88-1.25,1.72-1.82,2.62a15,15,0,0,1-.94,1.78c-.75.86-.93,2.15-1.89,2.89-.36.28-.4,1.13-.86,1.62a11.75,11.75,0,0,0-1.33,1.95c-.29.47-.46,1.05-.78,1.5-.71,1-1,2.33-2,3.16-.41.33-.46,1.18-.85,1.57-.56.58-.57,1.49-1.26,2-.43.32-.58,1.1-.89,1.64-.14.25-.39.42-.54.66-.51.86-1,1.73-1.48,2.6a39.35,39.35,0,0,1-2.25,3.91c-.52.71-.84,1.52-1.32,2.23-.61.9-1.29,1.74-1.86,2.67s-1.12,2.13-1.71,3.17a13.8,13.8,0,0,1-.94,1.23c-.1.13-.18.29-.28.44l-1.22,1.86a2.11,2.11,0,0,0-.18.33,9,9,0,0,1-2,3.42,7.45,7.45,0,0,0-.86,1.61c-.11.2-.34.34-.4.55-.12.44-.34,1-.2,1.34a6.6,6.6,0,0,0,1.13,1.52c.71.83,1.46,1.61,2.12,2.48a16.82,16.82,0,0,1,.93,1.73,9.77,9.77,0,0,0,.76,1c.93,1.2,1.83,2.42,2.79,3.59.54.66,1.17,1.23,1.73,1.88a9,9,0,0,1,.88,1.22c.32.52.5,1.23.92,1.56,1.21,1,1.83,2.42,2.75,3.61.53.68,1.19,1.22,1.74,1.88.37.45.62,1,1,1.49.52.74,1.07,1.46,1.61,2.18.36.48.72.95,1.1,1.41.64.8,1.32,1.57,1.94,2.39s1.11,1.59,1.66,2.4a5.9,5.9,0,0,0,.85,1.24,9.76,9.76,0,0,1,2,2.7,17.48,17.48,0,0,0,1.58,1.88c.62.8,1.22,1.64,1.82,2.46.29.41.54.85.85,1.25.66.85,1.34,1.69,2,2.54.54.68,1.11,1.34,1.64,2,.39.51.73,1.07,1.12,1.58s.83.91,1.21,1.4a7,7,0,0,1,1.4,1.95c.29.93.84,1.07,1.68,1.14-.29,2.27.23,4.53-.63,6.72a11.83,11.83,0,0,0-.19,2.19c-.13.81-.42,1.59-.57,2.41-.11.62,0,1.28-.15,1.89s-.42,1.26-.53,1.91-.06,1.42-.17,2.1c-.09.51-.39,1-.51,1.46a14.21,14.21,0,0,0-.19,1.46c-.08.56.18,1.26-.54,1.55-.07,0-.12.21-.12.33a5.74,5.74,0,0,1-.57,2.4,23.48,23.48,0,0,0-.95,3.37,19.76,19.76,0,0,1-1.1,2.27,6.23,6.23,0,0,0-.76,1.77c-.17,1.37-1.48,1.84-1.79,3.09-.05.24-.64.31-1.16.53v-1.38c0-8.06,0-16.12,0-24.18a3.09,3.09,0,0,0-1.2-2.55,14.89,14.89,0,0,1-1.55-2.07c-.63-.81-1.33-1.57-2-2.39a14.71,14.71,0,0,1-.92-1.48,5.44,5.44,0,0,0-.84-1.35,22.9,22.9,0,0,1-3.48-4.44c-.49-.7-1.2-1.2-1.75-1.86-.36-.44-.6-1-.93-1.49-.52-.74-1.07-1.45-1.61-2.17-.34-.46-.69-.92-1.06-1.35-.67-.81-1.39-1.57-2-2.41s-1.08-1.64-1.62-2.46c-.28-.42-.55-.83-.85-1.23-.66-.87-1.32-1.74-2-2.59-.53-.66-1.1-1.28-1.63-1.94-.38-.47-.72-1-1.09-1.47s-.82-1-1.21-1.53c-.53-.7-1-1.41-1.56-2.1s-1.2-1.58-1.8-2.36a22.86,22.86,0,0,1-1.64-2.17,6.55,6.55,0,0,0-1.31-1.69,7,7,0,0,1-1.48-2,9.89,9.89,0,0,0-1.94-2.44,16.54,16.54,0,0,1-1.21-1.43c-.65.85-1.24,1.55-1.74,2.32-.34.51-.5,1.17-.85,1.67a14.84,14.84,0,0,1-1.81,2.88,8.9,8.9,0,0,0-.94,1.64c-.61,1-1.29,1.89-1.88,2.88-.38.64-.62,1.38-1,2.06-.21.39-.46.76-.71,1.13-.63.91-1.3,1.79-1.9,2.73-.34.52-.54,1.15-.87,1.69-.61,1-1.28,1.88-1.89,2.85-.34.55-.59,1.18-.92,1.74-.53.93-1.1,1.83-1.64,2.75s-1.24,2.14-1.87,3.19-1.1,1.81-1.65,2.71c-.38.6-.72,1.23-1.15,1.78-.72.91-1.07,2.08-1.87,3a17.88,17.88,0,0,0-1.71,3.12c-.49.88-1.05,1.71-1.58,2.55L298.14,248c-.4.64-.82,1.26-1.2,1.91s-.63,1.23-1,1.82c-.19.34-.43.65-.64,1-.62.89-1.27,1.76-1.85,2.68-.34.52-.54,1.17-.9,1.68a34.16,34.16,0,0,1-1.87,3,21,21,0,0,0-1.7,3c-.55.95-1.18,1.85-1.76,2.78-.36.58-.67,1.21-1,1.79a21.8,21.8,0,0,0-1.86,2.82,11.54,11.54,0,0,1-.89,1.71c-.59.88-1.1,1.82-1.64,2.74-.65,1.1-1.26,2.23-1.94,3.31-.58.91-1.25,1.74-1.84,2.64-.33.5-.56,1.09-.88,1.61-.63,1-1.32,2-1.94,3.08s-1.09,2.08-1.66,3.11c-.16.3-.43.52-.62.81-.61.92-1.24,1.84-1.81,2.8a9.09,9.09,0,0,0-1,2.09c-.41,1.44-1.12,1.73-2.22.87-.75-.58-1.56-1-2.33-1.61-.15-.11-.34-.5-.28-.58.54-.89,1.14-1.73,1.7-2.6.35-.55.64-1.15,1-1.7.6-1,1.26-1.88,1.84-2.86.39-.64.69-1.36,1-2a12.71,12.71,0,0,1,.69-1.19c.62-.92,1.29-1.79,1.86-2.74s1.09-2.08,1.64-3.1c.18-.33.46-.6.66-.91.59-.93,1.18-1.86,1.73-2.81.41-.7.77-1.44,1.16-2.15.23-.4.46-.79.71-1.16.61-.87,1.26-1.69,1.84-2.59a18.38,18.38,0,0,1,.89-1.71c.71-.89.91-2.17,1.88-2.9.43-.32.58-1.08.9-1.6.6-1,1.27-1.91,1.85-2.9s1.1-2.1,1.67-3.14c.3-.56.7-1,1-1.61.38-.74,1.12-1.19,1.21-2.15,0-.27.42-.47.59-.73.64-.92,1.27-1.85,1.86-2.8.35-.56.61-1.2,1-1.77.61-1,1.3-1.87,1.87-2.87s1.09-2.16,1.67-3.22c.48-.86,1-1.67,1.53-2.49.4-.63.82-1.24,1.23-1.86.63-.95,1.29-1.89,1.89-2.87.34-.54.56-1.18.89-1.73.54-.92,1.12-1.8,1.68-2.7l1.79-3c.65-1,1.33-2,2-3.07a12.88,12.88,0,0,1,.89-1.69c.72-.86.92-2.12,1.86-2.84.46-.35.62-1.15.95-1.71.58-1,1.21-1.86,1.76-2.83s1.13-2.19,1.73-3.27c.32-.58.73-1.09,1.08-1.65s.69-1.14,1-1.7c.22-.34.47-.64.69-1,.63-1,1.29-1.92,1.88-2.92.39-.66.53-1.64,1.05-2a1.36,1.36,0,0,0,.43-1.85c-.45-.59-.49-1.31-.85-1.86a4.11,4.11,0,0,1,0-3.84.63.63,0,0,0,.17-.32c.08-1.43,1.15-2,1.93-2.79a6.5,6.5,0,0,1,1-.82c1.23-.86,2.53-.48,3.81-.54a2.07,2.07,0,0,0,1.71-1.49,5.75,5.75,0,0,1,.74-1.38c.55-.88,1.16-1.73,1.69-2.62s1.17-2.12,1.77-3.17c.28-.51.59-1,.91-1.49a7.14,7.14,0,0,0,1.31-2.23c.12-.49.66-.86,1-1.28a1,1,0,0,0,.23-.4,4,4,0,0,1,1.18-1.92c.37-.48.62-1.08.95-1.61.64-1,1.31-1.93,1.93-2.93.33-.56.54-1.21.87-1.77s.85-1.26,1.25-1.92.57-1.15.91-1.68c.6-1,1.28-1.85,1.88-2.82.33-.54.52-1.19.86-1.73.6-1,1.27-1.87,1.91-2.81a3.31,3.31,0,0,0,.15-.33c.32-.62.63-1.26,1-1.86.62-1.09,1.25-2.19,1.91-3.24s1.26-1.79,1.86-2.72c.34-.54.56-1.19.93-1.71a27.48,27.48,0,0,1,1.86-3,16.21,16.21,0,0,0,1.66-3c.17-.3.44-.54.63-.83.65-1,1.3-2,1.9-3,.37-.65.63-1.36,1-2a9.52,9.52,0,0,1,.75-1.33c.62-.85,1.32-1.64,1.92-2.5.32-.46.48-1.07.78-1.55.63-1,1.36-2,1.94-3.07.28-.51.27-1.18.84-1.56s.52-1.6,1.34-2c.29-.15.42-.71.63-1.07.52-.93,1-1.87,1.56-2.77s1.3-2,1.93-3c.33-.54.53-1.18.9-1.67.69-.9,1-2,1.82-2.89a17.29,17.29,0,0,0,1.74-3.18c.2-.36.45-.69.66-1,.71-1.21,1.36-2.46,2.12-3.64.6-.93,1.35-1.75,2-2.67.33-.48.48-1.11.79-1.62.6-1,1.27-1.9,1.88-2.88.33-.53.54-1.15.87-1.68.61-1,1.26-1.87,1.88-2.81.09-.13.12-.3.2-.43.65-1.08,1.32-2.14,2-3.23.33-.57.56-1.23.91-1.79.59-.94,1.26-1.82,1.87-2.74.31-.47.56-1,.86-1.47.5-.77.66-1.79,1.42-2.37C395.52,78.48,395.51,78.2,395.62,77.72Z" transform="translate(-264.63 -77.72)"/><path class="cls-1" d="M375.92,242.56h16.57c0,.06.1.11.1.17a44.58,44.58,0,0,0,.85,5.82c.38,1.34.36,2.77.81,4a11.58,11.58,0,0,1,.54,2.73c0,.27.26.51.36.78a6.18,6.18,0,0,1,.29,1c.15.73-.25,1.65.61,2.13,0,0,0,.06,0,.09.27,1.13.49,2.29.83,3.4s.75,2,1.14,3c0,.12.14.23.15.35a8.46,8.46,0,0,0,1.28,3c.37.71.55,1.54.91,2.26s.83,1.31,1.23,2a10.5,10.5,0,0,0,.93,1.69c1.13,1.26.6,2.8.61,4.2.06,7.39,0,14.78,0,22.17v.92c2.22,1.3,4.52,1,6.79,1.15a38.94,38.94,0,0,1,7.31.88c1.78.49,3.56.16,5.26.62a15.11,15.11,0,0,1,3.3,1.16,8.46,8.46,0,0,1,2.27,1.77,5.69,5.69,0,0,1,1.74,2.44,9.68,9.68,0,0,0,1,2.06c0,.09.13.14.16.23.3.92.54,1.87.9,2.76s.83,1.57,1.18,2.39a10.78,10.78,0,0,0,.85,2.42c.64.84.32,2.15,1.26,2.76a.27.27,0,0,1,.08.16c.26.86.46,1.75.78,2.57s.86,1.74,1.24,2.64.53,1.6.85,2.37c.38.93.84,1.83,1.22,2.76.31.77.54,1.57.85,2.34.4,1,.84,1.91,1.26,2.86,0,0,.08.09.1.15.26.86.46,1.74.78,2.57s.68,1.41,1,2.12a4.39,4.39,0,0,1,.26.63,11.09,11.09,0,0,0,1.31,3,12.76,12.76,0,0,1,.83,2.42c.4,1.16.87,2.29,1.22,3.46a7.3,7.3,0,0,1,.17,1.76,13.21,13.21,0,0,1-1.15,4.55c-.61,1.81-2.13,2.56-3,4,0,.07-.14.1-.22.13a9,9,0,0,0-2.28.91c-1.19.92-2.46.57-3.7.58a5.89,5.89,0,0,1-3.53-1.33,9.67,9.67,0,0,1-2.39-1.87,11.26,11.26,0,0,1-2-3.36c-.24-.81-.26-2-1.17-2.51,0,0-.06-.11-.07-.17-.28-.93-.48-1.9-.84-2.78-.56-1.36-1.26-2.64-1.84-4-.34-.77-.55-1.63-.88-2.41a9.32,9.32,0,0,0-1.21-2.74,5.17,5.17,0,0,1-.75-1.79c-.31-1-.55-2-.87-2.92a13.26,13.26,0,0,0-.67-1.54c-.4-.86-.82-1.71-1.23-2.56l-.16-.34c-.41-1-.86-2-1.24-3s-.52-1.86-.87-2.75-.77-1.52-1.12-2.3a2.12,2.12,0,0,1-.23-.92,1,1,0,0,0-1-1.2c-2.12-.28-4.23-.53-6.35-.76-2.86-.31-5.78-.28-8.57-1-2-.49-4-.07-5.8-.66-2.35-.75-4.71-.47-7.06-.77a14.86,14.86,0,0,1-3.55-.74,6.64,6.64,0,0,1-2.88-1.61,24.68,24.68,0,0,0-2-1.93c-.09-.09-.27-.06-.53-.11,0,.54,0,1-.07,1.51a6.65,6.65,0,0,1-.51,2.68,8.24,8.24,0,0,0-.22,2.77,4.07,4.07,0,0,1-.52,2.47c-.24.31-.11,1-.16,1.47-.15,1.47.08,2.94-.58,4.4-.4.87-.09,2.12-.18,3.18a6.3,6.3,0,0,1-.43,1.29,2.81,2.81,0,0,0-.18.76c0,.77,0,1.55-.09,2.31s-.31,1.63-.44,2.46c-.1.59-.14,1.19-.2,1.79-.15,1.37.18,2.8-.59,4.09-.24.38-.09,1-.14,1.58a67.3,67.3,0,0,1-.91,8c-.34,1.48-.18,3-.6,4.37-.61,2-.28,4.2-.81,6.16a28.93,28.93,0,0,0-.5,4.3,11.57,11.57,0,0,1-.45,1.57,4.89,4.89,0,0,0-.16.76c-.2,1.62.15,3.28-.63,4.88-.36.74-.07,1.85-.14,2.79-.06.78.25,1.7-.57,2.28-.11.08-.08.44-.08.67,0,1,0,2.09-.11,3.12a13.26,13.26,0,0,1-.44,1.3,12.89,12.89,0,0,0-.2,2,5.39,5.39,0,0,1-1.11,2.7,8.8,8.8,0,0,1-1,1.6,17.35,17.35,0,0,1-2.27,2,5.33,5.33,0,0,1-2.18,1.23,24.72,24.72,0,0,1-5.16,0c-.73-.07-1.41-.77-2.1-1.2a7.18,7.18,0,0,1-1.5-1,12.51,12.51,0,0,1-2-2.36,13.34,13.34,0,0,1-.88-2.61,7.53,7.53,0,0,1-.51-1.7,11.39,11.39,0,0,1,.17-2.24c0-.27.26-.51.28-.78,0-.76,0-1.54.08-2.31a6.27,6.27,0,0,1,.43-2.57,8.21,8.21,0,0,0,.25-2.67,4.59,4.59,0,0,1,.49-2.56c.23-.34.14-1,.19-1.47a66.87,66.87,0,0,1,.89-8.18c.39-1.68.18-3.42.66-5,.58-1.9.16-3.9.69-5.68s.18-3.37.69-4.85c.61-1.8.18-3.71.73-5.35.64-1.91.1-3.93.68-5.66s.17-3.8.73-5.48.17-3.44.67-5c.6-1.85.26-3.8.76-5.55.44-1.59.16-3.23.61-4.7.61-2,.26-4.09.82-6,.47-1.58.18-3.21.63-4.67.56-1.86.14-3.84.68-5.57s.27-3.37.66-5c1.22-4.95.35-10,.55-14.94a2,2,0,0,1,1-1.86c1.82-.7,2.86-2.29,4-3.79a8.46,8.46,0,0,0,1.41-2.55,12.36,12.36,0,0,1,1.18-2.05.71.71,0,0,0,.13-.24,3.76,3.76,0,0,1,.57-1.61,15.18,15.18,0,0,0,.9-3.15c.35-1.17.76-2.33,1.15-3.49l.07-.18c.27-1.3.59-2.59.82-3.9.29-1.68.26-3.5.86-5s.2-2.8.65-4c.71-1.9.19-4,.75-5.72A23.46,23.46,0,0,0,375.92,242.56Z" transform="translate(-264.63 -77.72)"/><path class="cls-1" d="M342.94,290.7c0-10.51,0-21,0-31.54a6.18,6.18,0,0,1,2.53-5.16,5,5,0,0,1,2.85-.95c3.47-.11,6.95,0,10.42-.06.73,0,1.05.14,1.05,1.09,0,13.44,0,26.87,0,40.31a18,18,0,0,1-.49,2.45c-.1.63-.09,1.27-.16,1.9a67.74,67.74,0,0,1-.93,7.86c-.36,1.56-.1,3.18-.57,4.58-.66,1.94-.23,4-.8,5.83a24.17,24.17,0,0,0-.55,4.88,5.58,5.58,0,0,1-.4,1.12,3.07,3.07,0,0,0-.21.83c-.05,1-.06,2-.09,3,0,1.33-.51,1.83-1.73,1.84s-2.22.09-3.32,0a18.91,18.91,0,0,1-4.18-.68c-.74-.24-1.34-1.1-1.93-1.77a10.4,10.4,0,0,1-1.22-1.85,2.35,2.35,0,0,1-.18-1q0-7,0-14V290.7Z" transform="translate(-264.63 -77.72)"/><path class="cls-1" d="M402.81,267.24c-.6-1.34-1.17-2.54-1.67-3.78-.24-.58-.28-1.22-.59-1.84a20.36,20.36,0,0,1-1-3.69c-.33-1.26-.73-2.49-1.11-3.73,0-.1-.08-.19-.09-.28-.27-1.51-.55-3-.79-4.53a6.67,6.67,0,0,0-.49-2,9.31,9.31,0,0,1-.27-2.76c-.09-.8-.24-1.6-.4-2.61.78-.52,1.78-1.15,2.75-1.84.45-.32.83-.76,1.28-1.09s1.1-.7,1.63-1.07c1.31-.93,2.61-1.89,3.93-2.81.52-.35,1.11-.59,1.63-.95.89-.61,1.75-1.29,2.63-1.93.51-.36,1-.71,1.54-1,1.07-.72,2.14-1.45,3.23-2.14.56-.35,1.17-.62,1.74-1a9.4,9.4,0,0,0,.87-.69c.89-.67,1.76-1.37,2.68-2s1.93-1.13,2.86-1.77,1.66-1.33,2.53-1.93,1.94-1.18,2.88-1.82,1.74-1.31,2.6-2c.09-.06.18-.19.28-.19.86,0,1.31-.81,1.92-1.32a15.05,15.05,0,0,1,1.59-1c.63-.43,1.22-1,1.85-1.38.44-.31,1-.48,1.37-.82.92-.76,2.11-1,2.89-2.09.36-.49,1.09-.61,1.61-1,.89-.58,1.74-1.22,2.62-1.82.64-.44,1.32-.82,1.95-1.27s.95-.79,1.42-1.18c.07-.06.12-.15.19-.19a15.52,15.52,0,0,0,1.52-.78c.9-.62,1.75-1.33,2.65-1.93s2.19-1.06,2.95-1.94,1.78-.57,2.58-1.16c.46-.33,1.33,0,2,.13.23,0,.44.26.66.25,1.31,0,2,1.07,2.85,1.9,1.9,1.86,1.44,4.32,1.17,6.61a4.56,4.56,0,0,1-1.52,2.25,10.29,10.29,0,0,1-3,2.28c-.91.39-1.61,1.37-2.47,2s-2,1.12-3,1.7c-.34.21-.64.51-1,.74-1.11.76-2.25,1.48-3.34,2.27-.86.62-1.63,1.38-2.5,2s-2,1.17-3,1.77a10.38,10.38,0,0,0-1,.75,6.55,6.55,0,0,1-2.45,1.55c-.28.06-.48.46-.75.67-.85.69-1.7,1.38-2.58,2a16.67,16.67,0,0,0-1.53.91c-.6.55-1.4.64-2,1.38-.29.38-1.08.43-1.58.91A32.38,32.38,0,0,1,431,234a1,1,0,0,1-.22.14c-.58.32-1.19.6-1.75,1-1.09.7-2.18,1.4-3.23,2.17-.85.62-1.64,1.34-2.47,2a1,1,0,0,1-.23.12c-.58.32-1.19.58-1.74,1s-1.11.89-1.67,1.32-1.32,1-2,1.45c-.5.33-1.06.56-1.56.9-.89.61-1.73,1.33-2.63,1.92s-2.06,1.16-3,1.83-1.63,1.34-2.48,2c-.5.38-1.08.64-1.59,1-1,.71-2,1.43-2.95,2.22-.2.16-.24.64-.24,1,0,4.07,0,8.13,0,12.2C403.17,266.53,403.44,267.3,402.81,267.24Z" transform="translate(-264.63 -77.72)"/><path class="cls-1" d="M382.69,201.2c1,0,1.92-.07,2.87,0a6.55,6.55,0,0,1,1.52.57,1.62,1.62,0,0,0,.43.12c1.2.08,2.13.93,3.19,1.36,1.42.58,2.32,1.87,3.59,2.61.52.3.84,1.06,1.25,1.61s.93,1.25,1.38,1.89a10.63,10.63,0,0,1,1.19,1.88c.39,1,.53,2,.93,3,1.12,2.62.5,5.37.54,8.06a8.67,8.67,0,0,1-1.11,4c-.34.7-.5,1.52-.88,2.17a8.42,8.42,0,0,1-1.93,2.84c-.6.45-1,1.25-1.56,1.78-.77.74-1.35,1.73-2.46,2a7,7,0,0,0-1.77,1.2s0,.06-.06.07c-.91.3-1.83.54-2.73.89a10.36,10.36,0,0,1-4.88.65,37.1,37.1,0,0,1-5.14-.79,8.11,8.11,0,0,1-2.06-1.25c-.51-.31-1.07-.52-1.56-.86a16.69,16.69,0,0,1-3.27-2.82c-.81-.95-1.39-2-2.09-3a19,19,0,0,1-2.22-5.68,18.69,18.69,0,0,1-.42-6,16.52,16.52,0,0,1,.77-3.91,9.32,9.32,0,0,1,1.31-3.07c.67-.86.85-2,1.84-2.72a18.74,18.74,0,0,0,2.27-2.48,12.74,12.74,0,0,1,1.62-1.19c.31-.22.59-.52.92-.71.78-.46,1.58-.9,2.38-1.31.24-.12.53-.09.77-.19.46-.16.91-.38,1.36-.56a2.4,2.4,0,0,1,.68-.16h3.33Zm3.09,32.35c.76-.29,1.34-.54,1.94-.74s1.23.05,1.61-.76a1.49,1.49,0,0,1,.91-.72c1.37-.33,1.61-1.85,2.41-2.76.41-.46.43-1.4.87-1.76.63-.53.49-1.15.54-1.78a.56.56,0,0,0-.25-.43c-.11,0-.3.11-.42.22a8,8,0,0,1-1.19,1.08,23.19,23.19,0,0,0-2.15,1,6.35,6.35,0,0,1-3.5,1.38.68.68,0,0,0-.51.16c-.55.7-1.29.49-2,.59-1.66.23-3.32.49-5,.75-.09,0-.22,0-.25.07s-.13.38-.08.42a7.88,7.88,0,0,0,1.25.92,9.48,9.48,0,0,1,2,1C383.22,233.16,384.74,232.54,385.78,233.55Z" transform="translate(-264.63 -77.72)"/><path class="cls-1" d="M531.9,209.43c-.92-.32-1.26.76-1.95,1s-1.35.87-2.06,1.22c-1,.51-2,.93-3.06,1.38a.82.82,0,0,1-.34.09c-1.74,0-3.55.33-5.18-.14-1-.29-2.19-.23-3.11-1.14a1.06,1.06,0,0,0-1.76.36c0,.07-.13.16-.2.16-1.29.13-2.42,1.17-3.81.85a12.75,12.75,0,0,0-1.52,0c-.56-.05-1.14.14-1.58-.59-.29-.48-2.16-.15-2.58.31-.08.09-.15.23-.25.25a10.6,10.6,0,0,1-3,.6A3.24,3.24,0,0,1,499,212.6c-.5-.65-1.29-1-1.75-1.72a5.22,5.22,0,0,1-.85-2.25c-.11-.79-.37-1.71.33-2.45.18-.19.15-.63.24-.94a5.08,5.08,0,0,1,2.11-2.61c1.27-.94,2.62-.66,4-.71s2.29.92,3.13,2c.1.14.31.18.46.26.5-1.19-.34-1.68-.85-2.17a8.06,8.06,0,0,0-2.17-1.4,3.88,3.88,0,0,0-1.41-.19c-.32,0-.64,0-1,0a4,4,0,0,1,1.16-3.13c.23-.28.4-.62.62-.92a10.93,10.93,0,0,1,3.51-2.8c2-1.17,4-.41,6.06-.59.17,0,.35.25.55.33a4.59,4.59,0,0,0,1.07.34c.06,0,.27-.58.25-.6a9,9,0,0,0-1.58-.91c-1-.4-2.08-.72-3.23-1.1-.05-.4-.26-.94.5-1.34.39-.21.55-.91.86-1.36a11.79,11.79,0,0,1,3.17-3.09,13.47,13.47,0,0,1,8.7-2.68,8,8,0,0,1,3.19.69c1.19.49,2.26,1.38,3.46,1.87s2,1.73,3,2.61a11.06,11.06,0,0,1,1.61,2.61c.38.64.79,1.27,1.18,1.91a.88.88,0,0,1,.12.26,22.64,22.64,0,0,1,.65,8.16c-.92.81-.17,2.3-1.1,3.19-.48.46-.6,1.36-.91,2a7.24,7.24,0,0,1-.7,1.17c-.41.56-.9,1.07-1.3,1.63a2.18,2.18,0,0,0-.18.76Z" transform="translate(-264.63 -77.72)"/><path class="cls-1" d="M486.2,253.74a13.57,13.57,0,0,0,.94-6.27,2,2,0,0,0-.47-1.38c-.35-.37-.24-1.29-.34-2a15.74,15.74,0,0,1,3.17.05c.73.15,1.36.84,2.07,1.16a2.94,2.94,0,0,1,1.51.93c.38.55,1,.86,1.18,1.65a10.64,10.64,0,0,0,1.08,2.16s.05,0,.06.07c.39.58.17,4.48-.27,5a1,1,0,0,0-.22.48,3.26,3.26,0,0,1-1.13,2.07,3.51,3.51,0,0,0-.37.66,2,2,0,0,1-.32.54c-.64.48-1.29.93-1.94,1.39a.3.3,0,0,1-.16.08c-1.46.16-2.79,1.26-4.31.79a15.61,15.61,0,0,1-2.54-1.15c-.49-.25-1.16-.16-1.44-.93a.81.81,0,0,0-1.24.38.3.3,0,0,1-.18.2,15.89,15.89,0,0,0-2.55.95,4.19,4.19,0,0,1-3.18.53,8.32,8.32,0,0,1-3.3-1.16,6.1,6.1,0,0,0-2.14-1c-.37-.09-1-.21-1.15.56,0,.05-.07.13-.12.13-1.22.22-2.34,1.2-3.63.7-.74-.29-1.4-.82-2.12-1.16-.55-.26-1.13-.38-1.41-1.08-.1-.24-.29-.43-.39-.67s0-.46-.12-.57c-1.34-1.46-.57-3.25-.46-4.84.06-.76,1-1.46,1.6-2.17.22-.26.52-.44.74-.71.86-1,2-.62,3-.84a1.22,1.22,0,0,0,.7-.51c.55-.75.57-1.83,1.36-2.48.39-.33.52-1,.84-1.5a2.87,2.87,0,0,1,1.61-1.47c.37-.1.68-.48,1-.73a7.89,7.89,0,0,1,5.77-1.38,10.8,10.8,0,0,1,2.94,1.14,6.58,6.58,0,0,1,2.38,1.74,11.93,11.93,0,0,1,2.48,3.79c.76,2,.41,3.94.55,5.9C485.77,253.3,485.61,253.89,486.2,253.74Z" transform="translate(-264.63 -77.72)"/><path class="cls-1" d="M513.24,317.64a18.26,18.26,0,0,1,3,0,6.15,6.15,0,0,1,3.23,1.3.37.37,0,0,0,.16.07,6.62,6.62,0,0,1,3.32,2.18c.81.92,1.76,1.68,2.52,2.65a10.19,10.19,0,0,1,1,2.11c.35.77.72,1.53,1.08,2.3a1.68,1.68,0,0,1,.19.44,26.4,26.4,0,0,1,.62,4.38,23.82,23.82,0,0,1-.7,4.95,13.18,13.18,0,0,1-1.31,3.36,26.47,26.47,0,0,1-1.95,2.55,6.8,6.8,0,0,1-2.53,2.33,18.27,18.27,0,0,0-2.66,1.9l-.08,0a16.3,16.3,0,0,1-3.12.86,30.29,30.29,0,0,1-5.47,0,5.45,5.45,0,0,1-3.07-1.22l-.16-.09a12.47,12.47,0,0,1-2.22-.95,11.8,11.8,0,0,1-1.81-1.73,22.12,22.12,0,0,1-1.79-1.95c-.4-.52-.6-1.24-1-1.78a4.88,4.88,0,0,1-.85-1.93,7.86,7.86,0,0,0-.52-1.37c-.15-.41-.31-.81-.44-1.23a4.68,4.68,0,0,1-.23-1.16c0-1.51-.05-3,0-4.53a6,6,0,0,1,.44-1.45c.05-.15.13-.29.17-.45a12.53,12.53,0,0,1,.82-3.05,16.88,16.88,0,0,1,3-4.13c.65-.61,1.25-1.28,1.87-1.92.06-.06.11-.15.19-.18a22.35,22.35,0,0,0,3.72-1.7C510.1,317.17,511.71,317.93,513.24,317.64Zm0,27h3.05a1.29,1.29,0,0,0,.62-.09c.75-.44,1.49-.92,2.22-1.41a6.63,6.63,0,0,0,1.53-1.14c.61-.75,1-1.73,1.62-2.45,1.11-1.24,1.35-2.92,1.78-4.43.6-2-.24-4.09-.6-6.12a.87.87,0,0,0-.15-.24c-.37-.62-.72-1.25-1.1-1.85a10.58,10.58,0,0,0-1.66-2.44,12.58,12.58,0,0,0-3.57-2.26,15.09,15.09,0,0,0-4.34-.69,6.67,6.67,0,0,0-2.2.56c-.93.3-1.85.64-2.77,1-.06,0-.09.17-.15.23-.4.35-.83.66-1.2,1a19.31,19.31,0,0,0-1.73,2c-.37.49-.55,1.15-.9,1.68a7.75,7.75,0,0,0-1.11,2.88q0,2.56,0,5.13a2.29,2.29,0,0,0,.15.88,18.07,18.07,0,0,1,1.09,2.15c.49,1.54,1.63,2.38,2.63,3.37a6.94,6.94,0,0,0,1.63,1.25,8.12,8.12,0,0,0,2.38,1A15.15,15.15,0,0,0,513.27,344.67Z" transform="translate(-264.63 -77.72)"/><path class="cls-1" d="M357.58,249.87c-.37,0-.74.09-1.1.1-3.69,0-7.38.1-11.06-.06a5.26,5.26,0,0,1-3.92-2,8.46,8.46,0,0,1-1.49-3.37c-.84-3-.19-6-.41-8.94.72-.92.31-2.25,1-3.27a10.28,10.28,0,0,0,1-1.61c.24-.5,1.06-.43,1.41,0,.73.94,1.52,1.82,2.25,2.76s1.22,1.71,1.86,2.54,1.16,1.38,1.75,2.06c.09.11.26.2.28.32.18,1.17,1.18,1.63,1.7,2.51a21.54,21.54,0,0,0,1.95,2.58c.57.71,1.2,1.37,1.78,2.06a10.63,10.63,0,0,1,.86,1.14c.33.54.57,1.16.94,1.66a9.8,9.8,0,0,0,1.21,1.2Z" transform="translate(-264.63 -77.72)"/><path class="cls-1" d="M531.87,209.47c.78.28,1-.6,1.45-.95a11.61,11.61,0,0,0,1.94-2.27,5.67,5.67,0,0,0,.74-1.45,28.78,28.78,0,0,0,.88-3,14.32,14.32,0,0,0,.65-4.75c0-.11.46-.36.72-.41a4.74,4.74,0,0,1,3.25.85,9.17,9.17,0,0,1,2.38,2.46,7.87,7.87,0,0,1,1.34,6.14,6.52,6.52,0,0,1-1.86,4.2,24.71,24.71,0,0,0-1.8,1.88c-.06.07-.13.16-.2.18-1.14.31-2.27.64-3.41.89-1.53.34-3-.31-4.32-.87a4.46,4.46,0,0,1-1.64-1.57c-.21-.29-.07-.9-.08-1.36Z" transform="translate(-264.63 -77.72)"/><path class="cls-1" d="M379,327.94a11.57,11.57,0,0,0,.32-1.43c.08-.9.12-1.81.12-2.71a2.71,2.71,0,0,1,.8-2.17c.54.19,1.15.21,1.44.56,1,1.21,2.53.31,3.67,1.16.47.36,1.28.19,1.93.23a11,11,0,0,1,2.77.16c2.24.76,4.53.47,6.79.73a2.8,2.8,0,0,1,1.26.64.81.81,0,0,1,.07.74c-.69.77-1.44,1.48-2.17,2.2a.31.31,0,0,1-.17.05,29.49,29.49,0,0,1-3.81.58c-3.68.07-7.37,0-11.05,0C380.17,328.71,379.38,328.83,379,327.94Z" transform="translate(-264.63 -77.72)"/><path class="cls-1" d="M387.2,239.94c.17-.23.2-.31.24-.32a14.19,14.19,0,0,0,3.19-1c1-.59,2.12-.81,2.86-1.89.31-.45.92-.61,1.35-1a12.71,12.71,0,0,0,3.57-4.17c.23-.47.63-1.5,1.52-1.11.36.15.83.44.92.78.19.7,1.14.85.94,1.77a.78.78,0,0,0,.12.45c.23.42.47.84.66,1.17-1.14.94-2.06,1.75-3,2.48-.48.37-1.07.53-1.57.88-.91.63-1.78,1.35-2.69,2a2,2,0,0,1-1,.27c-1.94,0-3.89,0-5.83,0A7.36,7.36,0,0,1,387.2,239.94Z" transform="translate(-264.63 -77.72)"/><path class="cls-1" d="M385.78,233.55c-1-1-2.56-.39-3.73-1.42a9.48,9.48,0,0,0-2-1,7.88,7.88,0,0,1-1.25-.92s0-.29.08-.42.16-.06.25-.07c1.65-.26,3.31-.52,5-.75.68-.1,1.42.11,2-.59a.68.68,0,0,1,.51-.16,6.35,6.35,0,0,0,3.5-1.38,23.19,23.19,0,0,1,2.15-1,8,8,0,0,0,1.19-1.08c.12-.11.31-.26.42-.22a.56.56,0,0,1,.25.43c-.05.63.09,1.25-.54,1.78-.44.36-.46,1.3-.87,1.76-.8.91-1,2.43-2.41,2.76a1.49,1.49,0,0,0-.91.72c-.38.81-1.05.57-1.61.76S386.54,233.26,385.78,233.55Z" transform="translate(-264.63 -77.72)"/><path class="cls-1" d="M513.27,344.67a15.15,15.15,0,0,1-2.78,0,8.12,8.12,0,0,1-2.38-1,6.94,6.94,0,0,1-1.63-1.25c-1-1-2.14-1.83-2.63-3.37a18.07,18.07,0,0,0-1.09-2.15,2.29,2.29,0,0,1-.15-.88q0-2.56,0-5.13a7.75,7.75,0,0,1,1.11-2.88c.35-.53.53-1.19.9-1.68a19.31,19.31,0,0,1,1.73-2c.37-.39.8-.7,1.2-1,.06-.06.09-.2.15-.23.92-.33,1.84-.67,2.77-1a6.67,6.67,0,0,1,2.2-.56,15.09,15.09,0,0,1,4.34.69,12.58,12.58,0,0,1,3.57,2.26,10.58,10.58,0,0,1,1.66,2.44c.38.6.73,1.23,1.1,1.85a.87.87,0,0,1,.15.24c.36,2,1.2,4.08.6,6.12-.43,1.51-.67,3.19-1.78,4.43-.63.72-1,1.7-1.62,2.45a6.63,6.63,0,0,1-1.53,1.14c-.73.49-1.47,1-2.22,1.41a1.29,1.29,0,0,1-.62.09h-3.05Z" transform="translate(-264.63 -77.72)"/></svg>