<svg id="Capa_1" data-name="Capa 1" xmlns="http://www.w3.org/2000/svg" viewBox="0 0 100 100"><defs><style>.cls-1{fill:#fff;}</style></defs><title>climbinginter</title><path class="cls-1" d="M-111.67-179.08s0,0,0,0a.67.67,0,0,0,.17-.08A.39.39,0,0,1-111.67-179.08Z" transform="translate(158.47 215.65)"/><path class="cls-1" d="M-111.27-180.17a2.29,2.29,0,0,0,.23-.21h0a1.51,1.51,0,0,1-.23.21Z" transform="translate(158.47 215.65)"/><path class="cls-1" d="M-112.18-178.78c-.11,0-.25.11-.41.16l.4-.14c.09,0,.19,0,.26-.08A.71.71,0,0,1-112.18-178.78Z" transform="translate(158.47 215.65)"/><path class="cls-1" d="M-113.74-179.1a1.64,1.64,0,0,1-.25-.19.32.32,0,0,1,0-.08h0s0,.07,0,.08l.25.19a1.87,1.87,0,0,1,.4.2c.26.2.56.07.77.27-.2-.2-.51-.07-.75-.28A1.5,1.5,0,0,0-113.74-179.1Z" transform="translate(158.47 215.65)"/><path class="cls-1" d="M-112.53-179.65h0l-.08.07A.27.27,0,0,0-112.53-179.65Z" transform="translate(158.47 215.65)"/><path class="cls-1" d="M-88.22-156.64a1.72,1.72,0,0,1-.53-.68c-.07-.15-.14-.29-.22-.43a.57.57,0,0,1,0-.18v-1a1.58,1.58,0,0,1,.22-.58c.07-.1.11-.24.18-.34s.23-.27.35-.4a1.57,1.57,0,0,1,.25-.2s0,0,0,0l.55-.2a1.48,1.48,0,0,1,.45-.11,2.83,2.83,0,0,1,.87.14,2.25,2.25,0,0,1,.38.19,2.75,2.75,0,0,0-.38-.2,3.24,3.24,0,0,0-.88-.14,1.16,1.16,0,0,0-.44.12c-.19.06-.37.12-.56.2,0,0,0,0,0,0l-.24.21a2.64,2.64,0,0,0-.35.4,3.65,3.65,0,0,0-.18.34A1.54,1.54,0,0,0-89-159v1a.47.47,0,0,0,0,.17,2.58,2.58,0,0,1,.22.44,1.72,1.72,0,0,0,.53.68,1.59,1.59,0,0,0,.33.25h0A1.31,1.31,0,0,1-88.22-156.64Z" transform="translate(158.47 215.65)"/><path class="cls-1" d="M-108.47-215.65a50,50,0,0,0-50,50,50,50,0,0,0,50,50,50,50,0,0,0,50-50A50,50,0,0,0-108.47-215.65ZM-81.95-186s.09-.08.14-.09a1,1,0,0,1,.66.18,1.86,1.86,0,0,1,.48.49,1.57,1.57,0,0,1,.27,1.24,1.31,1.31,0,0,1-.38.85c-.12.12-.25.25-.36.38l0,0-.69.18a1.46,1.46,0,0,1-.87-.17.92.92,0,0,1-.33-.32c0-.06,0-.17,0-.27h0c.15,0,.2-.12.29-.19a2.16,2.16,0,0,0,.39-.46,1.32,1.32,0,0,0,.15-.29q.11-.3.18-.6A3.13,3.13,0,0,0-81.95-186Zm-8.24,1.84s0-.13,0-.19a1.06,1.06,0,0,1,.43-.53,1.24,1.24,0,0,1,.8-.14.79.79,0,0,1,.63.4s.07,0,.1.06c.1-.24-.07-.34-.17-.44a1.57,1.57,0,0,0-.44-.28.57.57,0,0,0-.29,0h-.2a.81.81,0,0,1,.24-.64l.12-.18a2.29,2.29,0,0,1,.71-.57c.4-.23.81-.08,1.22-.12,0,0,.07.06.11.07a.94.94,0,0,0,.22.07.61.61,0,0,0,0-.12,2,2,0,0,0-.32-.18c-.2-.09-.42-.15-.65-.23,0-.08,0-.19.1-.27s.11-.18.17-.27a2.55,2.55,0,0,1,.64-.63,2.78,2.78,0,0,1,1.76-.54,1.75,1.75,0,0,1,.64.14c.24.1.46.28.7.38a2.53,2.53,0,0,1,.61.53,2.14,2.14,0,0,1,.32.52l.24.39,0,0a4.84,4.84,0,0,1,.13,1.65c-.19.16,0,.46-.23.64a1.7,1.7,0,0,0-.18.41,1.76,1.76,0,0,1-.14.23c-.08.12-.18.22-.26.33a.42.42,0,0,0,0,.16c-.19-.07-.25.15-.39.2a4.49,4.49,0,0,0-.42.24,5.83,5.83,0,0,1-.62.28l-.07,0a3.61,3.61,0,0,1-1,0c-.2-.06-.44,0-.63-.23a.22.22,0,0,0-.3,0,.35.35,0,0,0,0,.08s0,0,0,0c-.26,0-.49.23-.77.17h-.31c-.11,0-.23,0-.32-.12s-.44,0-.52.06,0,.05-.05.05a2.13,2.13,0,0,1-.61.12.64.64,0,0,1-.5-.23c-.1-.14-.26-.21-.35-.35a1.08,1.08,0,0,1-.18-.46C-90.28-183.81-90.33-184-90.19-184.14Zm6.39,25.61a4.73,4.73,0,0,1-.15,1,2.34,2.34,0,0,1-.26.68,6.41,6.41,0,0,1-.39.52,1.53,1.53,0,0,1-.51.47,4,4,0,0,0-.54.38h0a2.66,2.66,0,0,1-.63.17,5.06,5.06,0,0,1-1.1,0,1.08,1.08,0,0,1-.62-.24l0,0a2.25,2.25,0,0,1-.45-.19,2.47,2.47,0,0,1-.37-.35c-.12-.13-.25-.26-.36-.4s-.12-.25-.2-.35a1.13,1.13,0,0,1-.17-.39,1.36,1.36,0,0,0-.11-.28l-.09-.25a.93.93,0,0,1,0-.23c0-.31,0-.61,0-.92a1.4,1.4,0,0,1,.09-.29l0-.09a2.72,2.72,0,0,1,.17-.62,3.52,3.52,0,0,1,.6-.83c.13-.12.25-.26.38-.39s0,0,0,0a5.12,5.12,0,0,0,.75-.35c.29-.21.62-.05.92-.11a3.11,3.11,0,0,1,.61,0,1.2,1.2,0,0,1,.65.26l0,0a1.22,1.22,0,0,1,.67.44,6.38,6.38,0,0,1,.51.53,1.69,1.69,0,0,1,.2.43c.08.15.15.31.22.46a.36.36,0,0,1,0,.09A5.34,5.34,0,0,1-83.8-158.53Zm-11.67-18.31a.7.7,0,0,0,.2-.15,1.62,1.62,0,0,1,1.17-.28,2.67,2.67,0,0,1,.59.23,1.38,1.38,0,0,1,.48.35,2.49,2.49,0,0,1,.5.77,4,4,0,0,1,.11,1.19c0,.1,0,.22.11.19a2.87,2.87,0,0,0,.19-1.27.38.38,0,0,0-.1-.27c-.07-.08,0-.26-.07-.41a3.42,3.42,0,0,1,.64,0c.15,0,.28.17.42.24a.58.58,0,0,1,.3.18c.08.12.21.18.24.34a2.18,2.18,0,0,0,.22.43s0,0,0,0a2,2,0,0,1-.05,1,.16.16,0,0,0,0,.09.64.64,0,0,1-.22.42l-.08.13a.39.39,0,0,1-.06.11l-.4.28,0,0c-.29,0-.56.25-.87.16a2.94,2.94,0,0,1-.51-.23c-.1-.05-.23,0-.29-.19a.16.16,0,0,0-.23,0,.05.05,0,0,0,0,0l0,0a3.13,3.13,0,0,0-.51.19.85.85,0,0,1-.64.11,1.59,1.59,0,0,1-.67-.24,1.4,1.4,0,0,0-.43-.2c-.08,0-.2,0-.23.11l0,0c-.25,0-.47.24-.73.14s-.28-.17-.43-.23-.23-.08-.28-.22-.06-.09-.08-.14,0-.09,0-.11c-.27-.3-.11-.66-.09-1,0-.15.2-.29.32-.44s.11-.09.15-.14.41-.13.61-.17a.24.24,0,0,0,.14-.1c.11-.15.11-.37.27-.5s.11-.21.17-.31A.63.63,0,0,1-95.47-176.84Zm-15.46,16.08a7,7,0,0,0-1.43-.16,3.08,3.08,0,0,1-.72-.15,1.51,1.51,0,0,1-.58-.32,3.68,3.68,0,0,0-.4-.39s-.06,0-.11,0,0,.21,0,.31a1.27,1.27,0,0,1-.11.54,1.75,1.75,0,0,0,0,.56.87.87,0,0,1-.1.5c0,.06,0,.2,0,.29a2.69,2.69,0,0,1-.11.89,2.23,2.23,0,0,0,0,.64,1.14,1.14,0,0,1-.09.26.45.45,0,0,0,0,.16,3.54,3.54,0,0,1,0,.46c0,.16-.06.33-.09.5s0,.24,0,.36a1.81,1.81,0,0,1-.12.83c0,.07,0,.2,0,.32a14.41,14.41,0,0,1-.18,1.61c-.07.3,0,.61-.12.88s-.06.85-.17,1.25a6.12,6.12,0,0,0-.1.86,1.68,1.68,0,0,1-.09.32l0,.16a2.76,2.76,0,0,1-.13,1c-.07.15,0,.37,0,.56s0,.35-.11.46,0,.09,0,.14,0,.42,0,.63a1.14,1.14,0,0,1-.09.26,2.71,2.71,0,0,0,0,.41,1.11,1.11,0,0,1-.22.54,3.45,3.45,0,0,1-.2.32,4.36,4.36,0,0,1-.46.41,1.29,1.29,0,0,1-.44.25,6,6,0,0,1-1,0,1.27,1.27,0,0,1-.43-.25,1.21,1.21,0,0,1-.3-.2,2.32,2.32,0,0,1-.4-.48,2.28,2.28,0,0,1-.18-.52,2,2,0,0,1-.11-.35,2.28,2.28,0,0,1,0-.45s0-.1.06-.16,0-.31,0-.46a1.14,1.14,0,0,1,.09-.52,2,2,0,0,0,0-.54.94.94,0,0,1,.1-.52.85.85,0,0,0,0-.29,11.26,11.26,0,0,1,.18-1.65c.07-.34,0-.69.13-1s0-.79.14-1.15,0-.68.14-1,0-.75.14-1.08,0-.79.14-1.14,0-.77.15-1.11,0-.69.13-1,.06-.76.16-1.12,0-.65.12-1,0-.82.17-1.21,0-.65.12-.94,0-.77.14-1.12a9.32,9.32,0,0,0,.13-1,14.55,14.55,0,0,0,.12-3,.38.38,0,0,1,.2-.37,2.11,2.11,0,0,0,.8-.77,1.53,1.53,0,0,0,.29-.51,2.86,2.86,0,0,1,.24-.42.08.08,0,0,0,0,0,1,1,0,0,1,.12-.32,3.58,3.58,0,0,0,.18-.64c.07-.23.15-.47.23-.7l0,0c0-.26.12-.52.16-.79a5.62,5.62,0,0,1,.18-1c.12-.3,0-.56.13-.8s0-.81.15-1.16a3.91,3.91,0,0,0,.15-.83h3.35s0,0,0,0a9.43,9.43,0,0,0,.17,1.17c.08.27.07.56.16.81a2.07,2.07,0,0,1,.11.55c0,.06.06.1.08.16a1.17,1.17,0,0,1,0,.2c0,.15,0,.33.13.43v0c.05.23.1.46.17.68a4.84,4.84,0,0,0,.23.61.21.21,0,0,0,0,.07,1.71,1.71,0,0,0,.25.61c.08.14.12.31.19.45s.17.27.25.41a2.21,2.21,0,0,0,.18.34c.23.25.12.56.13.85,0,1.49,0,3,0,4.47v.19a2.84,2.84,0,0,0,1.37.23,7.3,7.3,0,0,1,1.47.18c.36.1.72,0,1.06.12a2.55,2.55,0,0,1,.67.24,1.75,1.75,0,0,1,.46.35,1.11,1.11,0,0,1,.35.5,2.22,2.22,0,0,0,.2.41s0,0,0,.05c.07.18.11.38.19.55s.16.32.23.49a2.22,2.22,0,0,0,.18.49c.13.17.06.43.25.55a.05.05,0,0,1,0,0c0,.17.09.35.15.51s.18.36.25.54.11.32.18.48.17.36.24.55.11.32.17.47.17.39.26.58l0,0a4.48,4.48,0,0,0,.16.52,3.45,3.45,0,0,0,.2.43.5.5,0,0,1,0,.13,2.66,2.66,0,0,0,.26.6,2.19,2.19,0,0,1,.17.49c.08.23.18.46.25.7a1.38,1.38,0,0,1,0,.35,2.65,2.65,0,0,1-.23.92c-.12.37-.43.52-.6.81,0,0,0,0,0,0a1.83,1.83,0,0,0-.46.18c-.24.19-.5.11-.75.12a1.22,1.22,0,0,1-.71-.27,2,2,0,0,1-.48-.38,2.47,2.47,0,0,1-.41-.68c0-.16,0-.4-.23-.5a.14.14,0,0,0,0,0,3.62,3.62,0,0,0-.17-.56c-.11-.27-.25-.53-.37-.81s-.11-.33-.17-.48a2.18,2.18,0,0,0-.25-.56,1.14,1.14,0,0,1-.15-.36c-.06-.2-.11-.4-.18-.59a2,2,0,0,0-.13-.31l-.25-.51,0-.07c-.08-.21-.17-.41-.25-.61s-.11-.37-.18-.55-.15-.31-.22-.47a.41.41,0,0,1,0-.18.21.21,0,0,0-.16-.24h0l-1.28-.15a12.38,12.38,0,0,1-1.73-.2C-110.17-160.73-110.57-160.65-110.93-160.76Zm.85.78-.44.44h0a4.94,4.94,0,0,1-.77.12h-2.23c-.16,0-.32,0-.39-.15s0-.19.06-.29a5.06,5.06,0,0,0,0-.55.57.57,0,0,1,.17-.44c.11,0,.23.05.29.12.2.24.51.06.74.23s.26,0,.39.05a2.67,2.67,0,0,1,.56,0,6.32,6.32,0,0,0,1.37.15.5.5,0,0,1,.25.13A.16.16,0,0,1-110.08-160Zm-11.15-7.1v-6.37a1.25,1.25,0,0,1,.51-1,1,1,0,0,1,.57-.19c.7,0,1.41,0,2.11,0,.14,0,.21,0,.21.22v8.14a4.26,4.26,0,0,1-.1.49c0,.13,0,.26,0,.38a13.81,13.81,0,0,1-.19,1.59,8.22,8.22,0,0,1-.12.92c-.13.4,0,.81-.16,1.18a5.56,5.56,0,0,0-.11,1,1,1,0,0,1-.08.22.53.53,0,0,0,0,.17c0,.2,0,.4,0,.61s-.1.37-.35.37-.45,0-.67,0a4,4,0,0,1-.84-.14c-.15,0-.27-.22-.39-.36a1.85,1.85,0,0,1-.25-.37.45.45,0,0,1,0-.2v-6.6Zm-.68-11.12c.15-.19.07-.46.2-.66a1.85,1.85,0,0,0,.21-.33c0-.1.21-.08.28,0l.46.56c.14.19.24.35.37.51s.23.28.35.42.06,0,.06.06c0,.24.24.33.34.51a4,4,0,0,0,.4.52c.11.14.24.28.36.42a2,2,0,0,1,.17.23c.07.11.12.23.19.33a1.81,1.81,0,0,0,.24.24v.07l-.22,0c-.74,0-1.49,0-2.23,0a1.07,1.07,0,0,1-.79-.41,1.55,1.55,0,0,1-.3-.68A9.09,9.09,0,0,1-121.91-178.2Zm12.11-2.69a1.75,1.75,0,0,1-.22.81c-.07.14-.1.31-.18.44a1.7,1.7,0,0,1-.39.57c-.12.09-.2.25-.32.36s-.27.35-.49.41a1.41,1.41,0,0,0-.36.24h0c-.19.06-.37.11-.55.18a2.09,2.09,0,0,1-1,.13,7.48,7.48,0,0,1-1-.16,1.33,1.33,0,0,1-.41-.25c-.1-.06-.22-.1-.32-.17a3.56,3.56,0,0,1-.66-.57c-.16-.19-.28-.41-.42-.61a3.88,3.88,0,0,1-.45-1.14,3.85,3.85,0,0,1-.08-1.22,3.47,3.47,0,0,1,.15-.78,1.65,1.65,0,0,1,.27-.62c.13-.18.17-.41.37-.55a4.33,4.33,0,0,0,.46-.5,2,2,0,0,1,.33-.24,1.3,1.3,0,0,1,.18-.15l.48-.26s.11,0,.16,0l.27-.11.14,0h1.25a1.66,1.66,0,0,1,.31.12l.08,0a2.21,2.21,0,0,1,.65.28,7.79,7.79,0,0,1,.72.52c.11.07.17.22.25.33s.19.25.28.38a1.73,1.73,0,0,1,.24.38c.08.2.11.4.19.61A4,4,0,0,1-109.8-180.89Zm.07,1.65c.07,0,.17.09.19.16s.23.17.19.35,0,.07,0,.09.1.17.13.24l-.6.5c-.1.08-.22.11-.32.18l-.54.4a.36.36,0,0,1-.2.06H-112l-.26-.07s0-.06,0-.06a2.8,2.8,0,0,0,.64-.2c.21-.12.43-.17.58-.38s.19-.13.27-.21A2.43,2.43,0,0,0-110-179C-110-179.11-109.91-179.32-109.73-179.24Zm9.18-1.34c-.07,0-.13.1-.2.15a1.28,1.28,0,0,1-.49.31c-.06,0-.1.1-.15.14s-.35.28-.53.4l-.3.19c-.12.11-.29.12-.41.27s-.22.09-.32.19-.33.28-.51.41l0,0a2.5,2.5,0,0,0-.35.21l-.66.43-.5.41,0,0a4,4,0,0,0-.35.2l-.34.27c-.11.09-.27.2-.4.29s-.22.12-.32.18-.35.27-.53.39-.42.24-.61.37-.32.27-.5.4-.21.13-.32.21l-.59.44a.33.33,0,0,0,0,.21V-172s0,.21-.09.2c-.12-.28-.23-.52-.33-.77s-.06-.24-.12-.37a4.79,4.79,0,0,1-.21-.74c-.06-.26-.14-.51-.22-.76,0,0,0,0,0-.05,0-.31-.11-.61-.16-.92a1.12,1.12,0,0,0-.1-.4,2.09,2.09,0,0,1,0-.56c0-.16,0-.32-.08-.53.16-.1.36-.23.55-.37s.17-.15.26-.22l.33-.21.79-.57c.11-.07.23-.12.33-.19l.53-.39c.11-.07.21-.15.31-.2l.66-.44c.11-.07.23-.12.35-.2l.17-.14.54-.4c.19-.13.39-.23.58-.36s.34-.27.51-.39l.58-.36c.19-.13.36-.27.53-.41,0,0,0,0,.06,0,.17,0,.26-.16.38-.26l.32-.21c.13-.08.25-.2.38-.27a3.18,3.18,0,0,0,.27-.17c.19-.15.43-.2.59-.42s.22-.12.32-.2l.53-.37.4-.26c.12-.09.19-.16.28-.24l0,0,.31-.16c.18-.13.35-.27.53-.39a2.8,2.8,0,0,0,.6-.39c.15-.18.36-.12.52-.24s.27,0,.4,0,.09,0,.14,0c.26,0,.4.22.57.38a1.49,1.49,0,0,1,.24,1.34.9.9,0,0,1-.31.45,2,2,0,0,1-.61.46,3,3,0,0,0-.49.41c-.18.12-.41.22-.61.34s-.13.1-.2.15c-.23.15-.46.3-.68.46s-.33.28-.5.4A7,7,0,0,1-100.55-180.58Zm-36,13.45.2-.34c.12-.2.26-.38.37-.58a3.73,3.73,0,0,0,.2-.4l.14-.24c.13-.19.26-.36.38-.56s.22-.41.33-.62.09-.12.13-.18.24-.38.35-.57.16-.29.24-.44a1.76,1.76,0,0,1,.14-.23c.12-.18.25-.34.37-.52l.18-.35c.14-.18.19-.44.38-.58s.12-.22.18-.33.26-.38.38-.58.22-.43.33-.64.14-.2.21-.32.22-.24.24-.43.08-.1.12-.15.25-.38.37-.57.13-.24.21-.35.26-.38.37-.58.22-.44.34-.65.2-.34.31-.51.16-.25.25-.37.26-.38.38-.58.11-.24.18-.35.22-.36.34-.55l.36-.6c.13-.2.27-.4.4-.62a2.21,2.21,0,0,1,.18-.34c.15-.18.19-.43.38-.58s.12-.23.19-.34.24-.38.35-.57.23-.44.35-.66.15-.22.22-.33.14-.23.2-.35a2.43,2.43,0,0,0,.14-.2c.13-.2.26-.39.38-.59s.11-.33.21-.4a.28.28,0,0,0,.09-.38,4,4,0,0,1-.17-.37.83.83,0,0,1,0-.78.07.07,0,0,0,0-.06c0-.29.24-.41.39-.56a1.12,1.12,0,0,1,.21-.17,1.26,1.26,0,0,1,.76-.11.41.41,0,0,0,.35-.3,1.51,1.51,0,0,1,.15-.28l.34-.53c.11-.18.24-.43.36-.64s.12-.2.18-.3a1.29,1.29,0,0,0,.27-.45c0-.1.13-.17.2-.26a.12.12,0,0,0,0-.08.88.88,0,0,1,.24-.39,1.69,1.69,0,0,0,.19-.32c.13-.2.27-.39.39-.59s.11-.25.18-.36.17-.25.25-.39.12-.23.19-.34.25-.37.37-.56.11-.25.18-.35.25-.38.38-.57a.11.11,0,0,0,0-.07c.07-.12.13-.25.21-.37s.25-.45.38-.66.26-.36.38-.55.11-.24.18-.34.24-.41.38-.61a3.56,3.56,0,0,0,.34-.6,1.77,1.77,0,0,1,.12-.17c.13-.2.27-.4.39-.61s.12-.27.2-.4a1.82,1.82,0,0,1,.15-.27c.12-.17.27-.33.39-.5s.09-.22.15-.32.28-.4.4-.62,0-.23.17-.31.1-.32.27-.4.08-.15.12-.22.21-.38.32-.56.26-.4.39-.6a2.21,2.21,0,0,1,.18-.34,6.36,6.36,0,0,1,.37-.59,3.59,3.59,0,0,0,.35-.64l.13-.2c.14-.24.28-.5.43-.73s.27-.36.4-.54.1-.23.16-.33.26-.38.38-.58.11-.23.18-.34.25-.38.38-.57c0,0,0-.06,0-.08.13-.22.26-.44.4-.66s.11-.24.18-.36.26-.37.38-.55.12-.2.18-.3.13-.36.28-.48a.82.82,0,0,1,0-.18c.18.1.35.18.51.28a1.26,1.26,0,0,1,.24.22.18.18,0,0,1,0,.13c-.12.17-.25.34-.36.51s-.11.24-.18.35-.26.37-.38.56a1.57,1.57,0,0,0-.08.29,5.26,5.26,0,0,1,.53.15c.18.07.36.17.55.26h0c.21.06.43.11.64.19s.35.17.53.26a0,0,0,0,0,0,0c.18.06.36.11.53.18a4.52,4.52,0,0,1,.49.25l.09,0a2.17,2.17,0,0,1,.54.19,5.39,5.39,0,0,0,.59.29c.21.12.44.2.65.32s.37.26.56.39.29.12.42.2a6.54,6.54,0,0,1,.52.4,1.51,1.51,0,0,0,.26.18,1.56,1.56,0,0,1,.47.42c.1.14.24.24.36.38a1.47,1.47,0,0,1,.14.28c.06.14.12.3.19.44a.91.91,0,0,0,.09.17s0,0,0,0a3.86,3.86,0,0,0,.16.48c.06.16.14.27.2.41s.12.29.2.43a1.42,1.42,0,0,0,.25.47c.09.07.12.2.18.3a3.72,3.72,0,0,0,.33.45c.17.2.34.38.52.56a1.49,1.49,0,0,0,.31.2l.4.26,0,0a1,1,0,0,1,.33.13,5.15,5.15,0,0,0,.75.19,6.39,6.39,0,0,0,2,.12c.36,0,.71-.1,1.07-.14.08,0,.23,0,.23.05a1.55,1.55,0,0,1,0,.37c0,.08-.06.15-.08.23s0,.26-.11.34,0,.09,0,.13,0,.32-.12.42,0,.09,0,.13a1.19,1.19,0,0,1-.08.2s0,0,0,.07c-.06.2-.1.39-.17.58a2.82,2.82,0,0,1-.21.38l-.19.38a2.7,2.7,0,0,1-.31.64c-.14.17-.17.42-.37.55s-.08.22-.17.31-.31.52-.53.73a3.64,3.64,0,0,0-.46.63c-.07.09-.17.16-.24.25l-.33.37-.36.41a4.55,4.55,0,0,1-.35.4l-.33.31c-.23.2-.45.41-.68.59a2.2,2.2,0,0,1-.32.21l-.18.14a2.55,2.55,0,0,1-.51.41c-.23.1-.47.33-.71.18s-.37-.07-.53-.15a5.55,5.55,0,0,0-.89-.32,3,3,0,0,1-.43-.24h0c-.2-.06-.4-.11-.6-.19a3.75,3.75,0,0,1-.44-.24l0,0a4.29,4.29,0,0,1-.89-.43l-.4-.19c-.13-.07-.25-.18-.38-.26a1.38,1.38,0,0,1-.33-.2c-.12-.12-.29-.11-.39-.28s-.19-.11-.28-.18l-.29-.26a.83.83,0,0,1-.3-.2,4.83,4.83,0,0,0-.38-.4l-.34-.34a4.12,4.12,0,0,1-.35-.37c-.14-.19-.28-.39-.41-.59a1.82,1.82,0,0,1-.15-.27c-.06-.16-.1-.33-.17-.49a3.36,3.36,0,0,0-.22-.42l0,0a3.66,3.66,0,0,0-.18-.46,4.07,4.07,0,0,0-.37-.55,5.4,5.4,0,0,0-.43-.52l-.43-.4a4.6,4.6,0,0,0-.53-.31c-.17-.1-.34-.07-.48-.15a2.9,2.9,0,0,0-1.4-.14,11.06,11.06,0,0,0-1.41,0,3,3,0,0,0-.66.14.37.37,0,0,0-.17.16c-.07.11-.12.23-.19.35s-.16.24-.23.37-.13.22-.19.33-.09.16-.14.24l-.37.53a3.13,3.13,0,0,1-.19.36c-.15.17-.19.43-.38.58s-.08.23-.17.33a1.7,1.7,0,0,0-.27.39,2.85,2.85,0,0,1-.16.3,2.65,2.65,0,0,1-.4.64c-.09.07-.1.24-.17.32s-.12.3-.26.4-.12.22-.18.33-.08.09-.11.14l-.3.52a6.18,6.18,0,0,1-.45.79c-.11.14-.17.31-.27.45s-.26.35-.37.54-.23.43-.35.64a2.35,2.35,0,0,1-.19.25.73.73,0,0,0,0,.09l-.25.37,0,.07a1.84,1.84,0,0,1-.4.69,1.41,1.41,0,0,0-.17.32s-.07.07-.08.11a.48.48,0,0,0,0,.28,1.29,1.29,0,0,0,.22.3c.15.17.3.33.43.5l.19.35.15.2c.19.25.37.49.57.73s.23.25.35.38a2.07,2.07,0,0,1,.17.24c.07.11.1.25.19.32a3.88,3.88,0,0,1,.55.73c.11.14.24.24.35.38s.13.2.21.3.21.29.32.44.15.19.22.28.27.32.4.49.22.32.33.48a1.38,1.38,0,0,0,.17.25,2,2,0,0,1,.41.55,2.76,2.76,0,0,0,.31.37l.37.5.17.25.41.52.33.4c.08.1.15.22.22.32s.17.18.25.28a1.6,1.6,0,0,1,.28.4c.06.18.17.21.34.23a5.11,5.11,0,0,1-.13,1.35,3.42,3.42,0,0,0,0,.44c0,.17-.08.32-.11.49s0,.26,0,.38-.09.26-.11.39,0,.28,0,.42-.08.2-.1.3a1.35,1.35,0,0,0,0,.29c0,.11,0,.26-.11.31s0,0,0,.07a1.13,1.13,0,0,1-.11.48,4.15,4.15,0,0,0-.19.69,3.81,3.81,0,0,1-.23.45,1.44,1.44,0,0,0-.15.36c0,.28-.3.37-.36.62,0,.05-.13.07-.23.11v-5.16a.63.63,0,0,0-.25-.51,3.25,3.25,0,0,1-.31-.42l-.4-.48c-.07-.1-.13-.2-.19-.3a1,1,0,0,0-.17-.27,4.72,4.72,0,0,1-.7-.9c-.1-.14-.24-.24-.35-.38a1.89,1.89,0,0,1-.19-.3l-.33-.44-.21-.27a6,6,0,0,1-.4-.48c-.13-.17-.22-.34-.33-.5l-.17-.25-.41-.52c-.1-.14-.22-.26-.33-.39a3.3,3.3,0,0,0-.22-.3l-.24-.31-.31-.42c-.12-.14-.25-.32-.37-.48a4.59,4.59,0,0,1-.33-.44,1.7,1.7,0,0,0-.26-.34,1.17,1.17,0,0,1-.3-.4,2.11,2.11,0,0,0-.39-.49l-.25-.29c-.13.17-.25.31-.35.46s-.1.24-.17.34a2.72,2.72,0,0,1-.37.58c-.07.11-.13.22-.19.33s-.26.39-.38.59-.12.27-.2.41-.09.15-.14.23-.26.36-.38.55-.11.23-.18.34-.26.38-.38.58-.12.24-.19.35-.22.37-.33.55-.25.44-.38.65-.22.36-.33.54a3.17,3.17,0,0,1-.23.36c-.15.19-.22.42-.38.61a3.83,3.83,0,0,0-.34.63c-.1.18-.22.34-.32.51l-.21.37-.24.39c-.08.13-.13.25-.2.36l-.13.21a6.45,6.45,0,0,0-.37.54c-.07.1-.11.23-.19.34s-.24.41-.37.6a4.59,4.59,0,0,0-.35.61c-.11.19-.23.37-.35.56s-.14.24-.2.36a4.35,4.35,0,0,0-.38.57,2.21,2.21,0,0,1-.18.34c-.12.18-.22.37-.33.56s-.25.45-.39.67l-.37.53c-.07.1-.12.22-.18.32s-.27.41-.39.63-.22.42-.34.62a1.77,1.77,0,0,1-.12.17l-.37.56a2.3,2.3,0,0,0-.2.42c-.08.29-.22.35-.45.18s-.31-.2-.47-.33-.07-.1-.05-.11Zm59.38,34.57h-59.58c-.07,0-.16,0-.21,0s-.11-.2-.08-.23c.2-.28.43-.54.65-.81a2.8,2.8,0,0,0,.41-.5,6.25,6.25,0,0,1,.71-.9,5.39,5.39,0,0,1,.33-.5c.24-.24.43-.59.83-.52.19-.17.43-.08.62-.16s.67-.2,1-.32a2.13,2.13,0,0,0,.54-.14c.19-.13.38-.09.56-.14s.47-.18.7-.26h0l.75-.18a.81.81,0,0,0,.21-.1l.08,0a1.63,1.63,0,0,0,.57-.13,5,5,0,0,1,.78-.21,4.54,4.54,0,0,0,.61-.15,3.07,3.07,0,0,1,.52-.14l.7-.26s.1,0,.15,0l.3-.12h0a1.84,1.84,0,0,0,.68-.17c.19-.08.4-.11.59-.17,0,0,0-.09.09-.12s.28-.22.41-.34.28-.28.42-.4.31-.23.45-.35l.38-.37c.13-.12.31-.26.47-.39l.36-.35c.16-.14.33-.27.48-.41l.24-.25.36-.33a5,5,0,0,0,.64-.58,3.34,3.34,0,0,1,.48-.36c.13-.1.24-.22.36-.33a3.59,3.59,0,0,1,.39-.39,2,2,0,0,1,.86-.35,2.31,2.31,0,0,0,.61-.25h0l.67-.17.17-.08.08,0a2.93,2.93,0,0,0,.7-.2c.2-.12.47,0,.63-.26h0c.23-.06.47-.11.7-.18l.67-.26.14,0c.11,0,.24,0,.3-.13h0c.25-.06.49-.11.73-.19s.43-.17.64-.25l0,0a.9.9,0,0,0,.45-.13,5.35,5.35,0,0,1,.64-.2,2.14,2.14,0,0,0,.38-.23,3.64,3.64,0,0,0,.35-.24l.14-.13c.19-.14.37-.29.56-.42a3.37,3.37,0,0,0,.32-.19c.16-.16.38-.19.52-.38s.2-.14.3-.21.4-.2.55-.4.21-.13.32-.2l.54-.41c.18-.13.39-.24.58-.37a1.59,1.59,0,0,0,.21-.15,8.85,8.85,0,0,1,.76-.57c.29-.17.57-.42,1-.34a1.55,1.55,0,0,0,.43,0,1.87,1.87,0,0,0,.67-.09,1.61,1.61,0,0,1,.58-.05,3.94,3.94,0,0,0,.77,0c.59-.16,1.2,0,1.78-.17a10.53,10.53,0,0,1,1.24-.1.44.44,0,0,1,.43.16c.17.21.31.45.48.66s.23.27.34.4.22.29.34.42l.54.65c.15.19.28.39.44.56a6.66,6.66,0,0,0,.53.66,3,3,0,0,1,.47.6c.12.16.25.3.37.46l.33.4.4.5c.15.19.29.39.45.57a4.35,4.35,0,0,1,.45.61A5,5,0,0,0-93-144c.12.14.2.32.32.48a4.88,4.88,0,0,0,.32.41l.21.26c.14.17.28.33.41.5a1.64,1.64,0,0,1,.14.22,1.75,1.75,0,0,0,.42.55c.12.15.2.33.32.48l.36.42c.07.1.13.22.2.32l.34.44a3.06,3.06,0,0,1,.21.29,2.75,2.75,0,0,0,.19.28,1.85,1.85,0,0,1,.4.52,4.23,4.23,0,0,0,.33.41,2.56,2.56,0,0,1,.2.26c.15.26.3.49.62.51a1.54,1.54,0,0,1,.76.17,1.62,1.62,0,0,0,.6.13.38.38,0,0,1,.17.08l.08,0,.87.17a2.69,2.69,0,0,1,.79.18,2.06,2.06,0,0,0,.66.14c.26.07.51.17.76.25l0,0c.33.06.66.1,1,.18s.62.18.93.27h0l.92.17.17.08a.43.43,0,0,0,.22.06,1.22,1.22,0,0,1,.7.18c.12.06.21.22.31.34s.13.18.19.26l.27.36c.09.11.2.25.32.37s.24.24.35.37.21.27.31.4.19.25.28.37l.21.24s.07.11.06.15A.23.23,0,0,1-77.18-132.56Z" transform="translate(158.47 215.65)"/></svg>