<svg id="Capa_1" data-name="Capa 1" xmlns="http://www.w3.org/2000/svg" viewBox="0 0 100 100"><defs><style>.cls-1{fill:#fff;}</style></defs><title>escaladaiconointer</title><path class="cls-1" d="M95.74,32.83a50,50,0,1,0,50,50A50,50,0,0,0,95.74,32.83Zm15.33,25.51c3.82,0,6.63,2.33,6.67,5.44s-2.82,5.59-6.53,5.58c-3.48,0-6.34-2.44-6.4-5.38C104.74,60.86,107.87,58.31,111.07,58.34Zm-12.18,66.3h0a2.8,2.8,0,0,1-1.17.32.41.41,0,0,1-.49-.28c-.13-.39-.26-.77-.38-1.16l-.44-1.37c-.18-.59-.36-1.18-.55-1.77-.13-.43-.27-.86-.4-1.3s-.21-.71-.32-1.06c-.18-.58-.35-1.17-.55-1.75-.43-1.24-.86-2.47-1.3-3.71s-.84-2.33-1.27-3.48-.83-2.16-1.25-3.24l-1.33-3.39-1.35-3.53c-.49-1.24-1-2.48-1.49-3.72-.35-.89-.68-1.79-1-2.67-.4-1-.82-2-1.22-3.06-.47-1.19-.93-2.39-1.4-3.58s-.87-2.21-1.3-3.31c-.23-.57-.46-1.13-.7-1.69a2.24,2.24,0,0,1,0-1c0-.34.11-.67.15-1s.08-.82.14-1.23c.08-.62.19-1.24.27-1.86s.13-1.12.21-1.68c.11-.89.24-1.78.35-2.67.1-.7.17-1.4.27-2.09s.19-1.26.28-1.88c0-.29.07-.59.1-.88.21-1.67.41-3.33.62-5,.11-.87.25-1.73.37-2.6.06-.38.09-.77.14-1.16.07-.63.17-1.26.23-1.89a.51.51,0,0,0,0-.32c-1-1.35-1.92-2.69-2.87-4L78.72,48l-2.38-3.33-1.66-2.36a1.19,1.19,0,0,0-.19-.2v0l1.14-.6c.17-.09.32-.19.49-.29h.1c.13.22.26.44.4.65l2.58,3.63,1.87,2.67,2.47,3.49c.83,1.17,1.65,2.34,2.48,3.5a.69.69,0,0,1,.1.56c-.1.59-.16,1.19-.24,1.78-.13.94-.26,1.88-.38,2.82-.09.66-.15,1.33-.24,2s-.19,1.24-.28,1.85c0,.29-.07.58-.1.86-.21,1.65-.41,3.31-.62,5-.1.82-.21,1.63-.31,2.45s-.2,1.52-.31,2.28c-.19,1.39-.37,2.78-.56,4.16a10.07,10.07,0,0,0-.16,1.44,2.58,2.58,0,0,0,.26.83c.49,1.26,1,2.53,1.48,3.8.42,1,.85,2.1,1.26,3.16s.9,2.33,1.37,3.5.93,2.39,1.41,3.59.92,2.3,1.36,3.45c.36.91.69,1.83,1,2.73.41,1.06.84,2.11,1.25,3.17s.91,2.41,1.36,3.61.8,2.15,1.2,3.23c.3.81.61,1.61.89,2.42s.48,1.48.72,2.22c.32,1,.64,2,.94,3,.17.55.31,1.1.47,1.64.28,1,.57,1.91.86,2.87.08.28.16.56.23.84A.24.24,0,0,1,98.89,124.64ZM120.5,98.53c-1,1.3-1.88,2.6-2.85,3.88s-2.07,2.64-3.08,4-1.84,2.46-2.71,3.71-1.58,2.36-2.33,3.56-1.33,2.2-2,3.3-1.32,2.09-2,3.13a7.61,7.61,0,0,1-.55.72,1.78,1.78,0,0,1-1.16.58c-.37,0-.74.06-1.11.09a2.76,2.76,0,0,1-2-.67,2.52,2.52,0,0,1-1-1.46,2.81,2.81,0,0,1,.33-1.86c.75-1.33,1.49-2.67,2.27-4,.68-1.17,1.38-2.35,2.12-3.5s1.59-2.42,2.43-3.61c1.13-1.57,2.31-3.12,3.45-4.68.26-.35.47-.73.69-1.09a2,2,0,0,0,.07-.23c-1.06-.29-2.08-.58-3.11-.84-1.18-.31-2.37-.59-3.55-.88l-2.29-.59c-.16,0-.28,0-.33.13a.75.75,0,0,0-.08.24c0,.48-.09,1-.09,1.46,0,1.37,0,2.73,0,4.1a11.64,11.64,0,0,1-.22,2.12,2.61,2.61,0,0,1-1.53,1.76,3.12,3.12,0,0,1-2,.35,9,9,0,0,1-1.41-.47,1.69,1.69,0,0,1-1-.77,2,2,0,0,1-.24-.67,20.77,20.77,0,0,1-.21-2.23q0-4.36,0-8.74a9.74,9.74,0,0,1,.21-1.87,2.19,2.19,0,0,1,1.24-1.37,3.91,3.91,0,0,1,1.7-.51,4.26,4.26,0,0,1,1,.07c.48.08.94.21,1.41.32l2,.47,2.81.66c.45.11.91.2,1.37.3l.3,0a1.21,1.21,0,0,0,0-.19c-.09-.63-.17-1.27-.27-1.9l-.12-.79c-.19-1.14-.38-2.28-.58-3.43,0-.22-.09-.45-.13-.68s-.22-.36-.54-.23-.63.26-1,.37a2.32,2.32,0,0,1-1.94-.14c-1.71-.9-3.41-1.8-5.1-2.74Q95.21,82.46,93,81.13c-1.07-.66-2.11-1.37-3.14-2.07a1.63,1.63,0,0,1-.68-1.36,2.61,2.61,0,0,1,.7-2.07,3.43,3.43,0,0,1,2-1,2.72,2.72,0,0,1,1.82.38q2.23,1.16,4.42,2.39c1.52.86,3,1.76,4.49,2.66.15.09.23.07.32,0,.4-.48.82-.94,1.19-1.43a1.85,1.85,0,0,0,.33-.79,2.25,2.25,0,0,0-.12-.71s0-.09,0-.13c0-.24-.11-.34-.38-.41-1-.25-1.9-.52-2.83-.8-1.37-.44-2.73-.87-4.07-1.39a4.94,4.94,0,0,1-1.33-.94c-1.42-1.16-2.83-2.32-4.22-3.5s-2.71-2.34-4-3.53a7.7,7.7,0,0,1-1.5-1.67,1.55,1.55,0,0,1-.17-1.31,3.31,3.31,0,0,1,2-2.1,2.84,2.84,0,0,1,2.67.2,18.8,18.8,0,0,1,2.52,1.79c1.37,1.16,2.77,2.3,4.14,3.45,1.14,1,2.26,1.92,3.42,2.87a1.9,1.9,0,0,0,.64.31c1,.29,2,.56,3,.84l3.5,1,1,.3a.36.36,0,0,0,.15,0c.8-.1,1.61-.22,2.41-.31s1.68-.19,2.52-.27c.49,0,1-.06,1.48-.08a1.37,1.37,0,0,1,1.22.84c.17.75.34,1.49.49,2.24.11.51.21,1,.31,1.52.24,1.22.48,2.43.71,3.65.16.8.32,1.6.46,2.4.09.49.16,1,.25,1.48.14.81.29,1.62.44,2.43.09.47.15,1,.24,1.43s.17.94.26,1.42c.05.23.09.46.13.69.11.73.22,1.46.34,2.19.17,1.09.37,2.18.54,3.27.1.65.17,1.31.26,2a2.79,2.79,0,0,0,.07.4C121.09,97.8,120.78,98.17,120.5,98.53Z" transform="translate(-45.74 -32.83)"/></svg>