<svg id="Capa_1" data-name="Capa 1" xmlns="http://www.w3.org/2000/svg" viewBox="0 0 259.91 150.77"><defs><style>.cls-1{fill:#fff;}.cls-2{fill:#e94500;}</style></defs><title>escaladaicono</title><path class="cls-1" d="M9.51,0C8.57.56,7.66,1.15,6.69,1.68,4.47,2.87,2.23,4,0,5.21V0Z" transform="translate(250.4 0)"/><path class="cls-1" d="M-200.4,6.35a50,50,0,0,0-50,50,50,50,0,0,0,50,50,50,50,0,0,0,50-50A50,50,0,0,0-200.4,6.35Zm15.33,25.51c3.82.05,6.62,2.33,6.66,5.44s-2.81,5.6-6.52,5.58c-3.49,0-6.34-2.44-6.4-5.38C-191.4,34.38-188.28,31.83-185.07,31.86Zm-12.19,66.3h0a2.84,2.84,0,0,1-1.17.32.41.41,0,0,1-.49-.28c-.13-.38-.26-.77-.38-1.16s-.3-.91-.44-1.37-.37-1.18-.55-1.77c-.13-.43-.27-.86-.4-1.3s-.21-.71-.32-1.06c-.18-.58-.35-1.17-.55-1.75-.43-1.24-.86-2.47-1.31-3.71s-.83-2.32-1.27-3.48-.83-2.16-1.25-3.23l-1.32-3.4c-.46-1.17-.9-2.35-1.36-3.53s-1-2.48-1.48-3.72c-.35-.89-.68-1.78-1-2.67s-.81-2-1.22-3.06c-.47-1.19-.92-2.39-1.39-3.58s-.87-2.21-1.31-3.31c-.22-.57-.45-1.13-.69-1.69a2.39,2.39,0,0,1,0-1,8.83,8.83,0,0,1,.16-1c.05-.41.08-.82.13-1.23.09-.62.19-1.24.28-1.86s.13-1.12.2-1.68l.36-2.67c.09-.7.17-1.4.27-2.09s.19-1.26.28-1.88c0-.29.06-.59.1-.88.2-1.67.4-3.33.62-5,.11-.87.25-1.73.37-2.6,0-.38.09-.77.13-1.16.08-.63.17-1.26.24-1.89a.42.42,0,0,0-.06-.31c-1-1.36-1.91-2.7-2.86-4.05-.83-1.17-1.64-2.35-2.47-3.52s-1.58-2.22-2.37-3.33c-.56-.78-1.1-1.57-1.66-2.36a1.8,1.8,0,0,0-.19-.2v0l1.14-.6c.17-.09.32-.19.48-.29h.11c.13.22.25.44.4.65l2.57,3.63,1.88,2.67,2.47,3.49c.82,1.17,1.64,2.34,2.48,3.5a.69.69,0,0,1,.1.56c-.1.59-.16,1.19-.24,1.78-.13.94-.26,1.88-.38,2.82-.09.67-.15,1.33-.24,2s-.19,1.24-.29,1.85c0,.29-.06.58-.1.86-.2,1.65-.41,3.31-.61,5-.11.82-.21,1.63-.31,2.45s-.21,1.52-.31,2.28l-.57,4.16a11.72,11.72,0,0,0-.15,1.44,2.58,2.58,0,0,0,.26.83c.49,1.26,1,2.53,1.48,3.8.41,1,.84,2.1,1.26,3.16s.9,2.33,1.36,3.5l1.41,3.59c.46,1.15.93,2.3,1.37,3.45.35.91.68,1.83,1,2.73.41,1.06.85,2.11,1.25,3.17s.92,2.41,1.37,3.61.8,2.16,1.19,3.23c.3.81.62,1.61.9,2.42s.48,1.48.72,2.22c.31,1,.63,2,.94,3,.17.55.31,1.1.47,1.64.28,1,.56,1.92.85,2.87.09.28.16.56.24.84A.24.24,0,0,1-197.26,98.16Zm21.62-26.11c-1,1.3-1.89,2.6-2.86,3.88s-2.06,2.64-3.07,4-1.84,2.46-2.72,3.71-1.57,2.36-2.33,3.56-1.33,2.2-2,3.3-1.32,2.09-2,3.13q-.26.38-.54.72a1.8,1.8,0,0,1-1.16.58c-.37,0-.74.07-1.11.09a2.75,2.75,0,0,1-2-.67,2.48,2.48,0,0,1-1-1.46,2.76,2.76,0,0,1,.33-1.86c.75-1.33,1.49-2.67,2.26-4,.68-1.17,1.38-2.34,2.13-3.5s1.58-2.42,2.43-3.61c1.13-1.57,2.31-3.12,3.45-4.68a11.54,11.54,0,0,0,.68-1.09,1,1,0,0,0,.08-.23c-1.07-.29-2.08-.58-3.11-.84s-2.37-.59-3.55-.88l-2.3-.58c-.15,0-.27,0-.33.12a2.25,2.25,0,0,0-.08.24c0,.49-.08,1-.09,1.46,0,1.37,0,2.73,0,4.1a12.59,12.59,0,0,1-.21,2.12,2.62,2.62,0,0,1-1.54,1.76,3.09,3.09,0,0,1-2,.35,8.53,8.53,0,0,1-1.4-.47,1.59,1.59,0,0,1-.95-.77,2,2,0,0,1-.24-.67,20.77,20.77,0,0,1-.21-2.23q0-4.36,0-8.74A9.74,9.74,0,0,1-200.9,67a2.18,2.18,0,0,1,1.23-1.37,4,4,0,0,1,1.71-.51,4.3,4.3,0,0,1,1,.07c.47.08.94.21,1.41.32l2,.47,2.81.66c.45.11.9.2,1.36.3l.3,0a1.23,1.23,0,0,0,0-.19l-.27-1.9c0-.27-.08-.53-.13-.79l-.57-3.43c0-.22-.09-.45-.14-.68s-.21-.36-.53-.23-.64.26-1,.37a2.31,2.31,0,0,1-1.94-.14c-1.71-.9-3.42-1.8-5.1-2.74q-2.26-1.26-4.44-2.59c-1.08-.66-2.12-1.37-3.14-2.07a1.61,1.61,0,0,1-.68-1.36,2.64,2.64,0,0,1,.69-2.07,3.52,3.52,0,0,1,2-1,2.68,2.68,0,0,1,1.81.38q2.25,1.15,4.42,2.39c1.52.86,3,1.76,4.5,2.66.15.09.23.08.32,0,.4-.48.82-.94,1.18-1.43a1.73,1.73,0,0,0,.33-.79,2,2,0,0,0-.11-.71s-.05-.09-.05-.13c0-.24-.1-.34-.37-.41-.95-.25-1.9-.51-2.84-.8-1.36-.44-2.73-.87-4.06-1.39a5,5,0,0,1-1.34-.94c-1.41-1.16-2.83-2.32-4.22-3.5s-2.71-2.34-4-3.53a7.66,7.66,0,0,1-1.49-1.67,1.48,1.48,0,0,1-.17-1.31,3.34,3.34,0,0,1,2-2.1,2.82,2.82,0,0,1,2.66.2,18.1,18.1,0,0,1,2.53,1.8c1.37,1.15,2.76,2.29,4.14,3.44,1.14.95,2.26,1.92,3.41,2.87a2,2,0,0,0,.65.31c1,.29,2,.56,3,.84l3.5,1,1,.3a.39.39,0,0,0,.15,0c.81-.1,1.61-.22,2.42-.31s1.67-.19,2.51-.27c.5,0,1-.06,1.49-.08a1.35,1.35,0,0,1,1.21.84c.17.75.34,1.49.5,2.24.11.51.21,1,.31,1.52.24,1.22.47,2.43.71,3.65.15.8.31,1.6.46,2.4.09.49.15,1,.24,1.48l.45,2.43c.08.47.15,1,.23,1.43s.17.94.27,1.42c0,.23.09.46.13.69.11.73.21,1.46.34,2.19.17,1.09.37,2.18.54,3.27.1.65.17,1.31.25,2a2.83,2.83,0,0,0,.08.4C-175,71.32-175.37,71.69-175.64,72.05Z" transform="translate(250.4 0)"/><circle class="cls-1" cx="189.36" cy="100.77" r="50"/><path class="cls-2" d="M-59.61,133.85H-89.34c-.06,0-.15,0-.2,0s-.11-.2-.08-.23c.2-.28.43-.54.65-.81a2.8,2.8,0,0,0,.41-.5,6.19,6.19,0,0,1,.7-.9c.11-.17.22-.34.34-.5s.43-.59.82-.52c.19-.17.44-.08.63-.16s.67-.2,1-.32c.18-.06.39,0,.54-.14s.38-.09.56-.14.47-.18.7-.26h0l.75-.18a.75.75,0,0,0,.2-.1l.08,0a1.58,1.58,0,0,0,.57-.13,5.41,5.41,0,0,1,.79-.21,5,5,0,0,0,.61-.15,3.07,3.07,0,0,1,.52-.14l.7-.26s.1,0,.15,0l.3-.12s0,0,0,0a1.65,1.65,0,0,0,.68-.16c.19-.08.4-.11.59-.17,0,0,0-.09.08-.12s.29-.22.42-.34.27-.28.42-.4.3-.23.45-.35l.38-.37c.13-.12.31-.26.47-.39l.36-.35.48-.41c.08-.08.15-.17.24-.25l.35-.33a4.49,4.49,0,0,0,.65-.58,3.34,3.34,0,0,1,.48-.36c.12-.1.24-.22.35-.33a3.68,3.68,0,0,1,.4-.39,2,2,0,0,1,.86-.35,2.31,2.31,0,0,0,.61-.25h0l.68-.17.17-.08.08,0a2.93,2.93,0,0,0,.7-.2c.2-.12.47,0,.63-.26h0c.23-.06.47-.11.7-.18l.67-.26a.35.35,0,0,1,.14,0c.11,0,.24,0,.3-.13h0c.25-.06.49-.11.73-.19s.42-.17.63-.25l.06,0a.87.87,0,0,0,.44-.13,6,6,0,0,1,.64-.2,1.9,1.9,0,0,0,.39-.23,2.62,2.62,0,0,0,.34-.24c.06,0,.1-.09.15-.13s.37-.29.56-.42l.32-.19c.16-.16.38-.19.52-.38s.2-.14.29-.21.41-.2.56-.4.21-.13.32-.2l.53-.41c.18-.13.4-.24.59-.37a1.49,1.49,0,0,0,.2-.15c.25-.2.5-.39.76-.57s.58-.42,1-.34a1.55,1.55,0,0,0,.43,0,1.87,1.87,0,0,0,.67-.09,1.58,1.58,0,0,1,.57,0,4,4,0,0,0,.78,0c.59-.16,1.2,0,1.77-.17a10.7,10.7,0,0,1,1.25-.1.44.44,0,0,1,.43.16c.17.21.31.45.48.66s.23.27.34.4.22.29.33.42l.55.65c.15.19.28.39.44.56a6.66,6.66,0,0,0,.53.66,3.46,3.46,0,0,1,.47.6c.12.16.24.3.37.46l.33.4.4.5c.15.19.29.39.45.56a6.49,6.49,0,0,1,.45.62,5,5,0,0,0,.51.52c.12.14.2.32.32.48s.2.28.31.41l.22.26c.14.17.28.33.41.5a1,1,0,0,1,.13.22,1.78,1.78,0,0,0,.43.55c.12.15.2.33.32.48s.24.27.35.42.14.22.21.32.23.29.34.44l.21.29a1.73,1.73,0,0,0,.19.28,1.85,1.85,0,0,1,.4.52,4.12,4.12,0,0,0,.32.41,2.65,2.65,0,0,1,.21.26c.15.26.29.49.62.51a1.5,1.5,0,0,1,.75.17,1.72,1.72,0,0,0,.61.13.38.38,0,0,1,.17.08l.08,0,.87.17a2.69,2.69,0,0,1,.79.18,2,2,0,0,0,.66.14c.25.07.5.17.76.25l.05,0c.33.06.66.1,1,.18s.62.18.93.27h0l.93.17.17.08a.43.43,0,0,0,.22.06,1.24,1.24,0,0,1,.7.18c.12.06.21.22.31.34s.12.18.19.26.18.24.27.36.2.25.32.37.24.24.35.37.2.27.31.4l.28.37.2.24s.08.11.07.15a.19.19,0,0,1-.12.11.28.28,0,0,1-.18,0Z" transform="translate(250.4 0)"/><path class="cls-2" d="M-63.17,56.35c.18.1.35.18.51.28a1.26,1.26,0,0,1,.24.22.24.24,0,0,1,0,.13l-.37.51c-.07.11-.1.24-.17.35s-.26.37-.38.56a1.57,1.57,0,0,0-.08.29,4.44,4.44,0,0,1,.52.15,5.52,5.52,0,0,1,.55.26h0a6.55,6.55,0,0,1,.63.19,5.44,5.44,0,0,1,.54.26h0c.18.06.35.11.52.18a3.89,3.89,0,0,1,.5.25l.08,0a2,2,0,0,1,.54.19,6.45,6.45,0,0,0,.59.29c.22.12.45.2.66.32s.37.26.56.39.29.12.42.2.34.26.52.4a2,2,0,0,0,.25.18,1.36,1.36,0,0,1,.47.42c.11.14.25.24.36.38a1.25,1.25,0,0,1,.15.28l.18.44.1.17s0,0,0,0,.1.33.16.48.15.27.21.41.12.29.2.43a1.42,1.42,0,0,0,.25.47c.08.07.11.2.18.3a3.72,3.72,0,0,0,.33.45,6.89,6.89,0,0,0,.52.56,1.43,1.43,0,0,0,.3.2l.41.26,0,0a1,1,0,0,1,.33.13,4.58,4.58,0,0,0,.75.19,6.39,6.39,0,0,0,2,.12c.36,0,.71-.1,1.06-.14.09,0,.24,0,.24,0a1.55,1.55,0,0,1,0,.37c0,.08-.06.15-.08.23s0,.26-.11.34,0,.09,0,.13,0,.32-.13.42,0,.09,0,.13a.72.72,0,0,1-.09.2s0,0,0,.07a5.54,5.54,0,0,1-.17.58,2,2,0,0,1-.2.38l-.19.38a2.7,2.7,0,0,1-.31.64c-.15.17-.17.42-.38.55s-.07.22-.16.31-.31.51-.53.72a5,5,0,0,0-.47.64c-.07.09-.16.16-.23.25s-.22.25-.33.37-.24.26-.36.41a3.42,3.42,0,0,1-.36.4l-.32.31c-.23.2-.45.41-.68.59a3.53,3.53,0,0,1-.32.21c-.07,0-.12.1-.18.14a2.87,2.87,0,0,1-.51.41c-.23.1-.47.33-.71.18s-.37-.07-.53-.15a5.92,5.92,0,0,0-.89-.32,3,3,0,0,1-.43-.24h0c-.2-.06-.4-.11-.6-.19a3.09,3.09,0,0,1-.44-.24s0,0,0,0a4.06,4.06,0,0,1-.89-.43l-.4-.19c-.14-.07-.26-.18-.39-.26a1.55,1.55,0,0,1-.32-.2c-.12-.12-.3-.11-.39-.28s-.19-.11-.28-.18l-.29-.26a.75.75,0,0,1-.3-.2,4.83,4.83,0,0,0-.38-.4l-.34-.34a4.12,4.12,0,0,1-.35-.37c-.15-.19-.28-.39-.41-.59a1.82,1.82,0,0,1-.15-.27c-.06-.16-.1-.33-.17-.49s-.15-.28-.22-.43l0,0a2.54,2.54,0,0,0-.17-.46A4.07,4.07,0,0,0-64,69.9a5.49,5.49,0,0,0-.44-.52c-.13-.15-.29-.26-.42-.4a4,4,0,0,0-.54-.31c-.16-.11-.33-.07-.47-.15a2.91,2.91,0,0,0-1.4-.14,11.06,11.06,0,0,0-1.41,0,2.87,2.87,0,0,0-.66.14.35.35,0,0,0-.18.16c-.06.11-.11.23-.18.35s-.16.24-.23.37-.13.22-.19.33l-.14.24c-.13.18-.26.35-.37.53s-.12.24-.19.36-.19.43-.38.58-.08.23-.18.33a2,2,0,0,0-.26.39c-.06.1-.1.21-.16.3s-.2.47-.4.64-.1.24-.18.32-.11.3-.25.4-.12.22-.18.33-.08.09-.11.14l-.3.52a7.67,7.67,0,0,1-.45.79c-.11.14-.17.31-.27.45s-.26.35-.37.54-.23.43-.35.64a2.35,2.35,0,0,1-.19.25l-.06.09-.24.37a.16.16,0,0,0,0,.07,1.84,1.84,0,0,1-.4.69,2,2,0,0,0-.18.32s-.06.07-.08.11a.73.73,0,0,0,0,.28,1.33,1.33,0,0,0,.23.3c.14.17.3.33.43.5l.19.35a1.49,1.49,0,0,0,.15.2l.56.73c.11.13.24.25.35.38a1.37,1.37,0,0,1,.18.24c.07.11.1.25.19.32a3.88,3.88,0,0,1,.55.73c.11.13.24.24.35.38a3.13,3.13,0,0,1,.2.3l.33.44c.07.09.14.19.22.28s.27.32.39.49.23.32.34.48a1,1,0,0,0,.17.25,2.1,2.1,0,0,1,.4.54,3.05,3.05,0,0,0,.32.38l.37.5.17.25.41.52.33.4c.08.1.14.22.22.32s.17.18.25.28a1.75,1.75,0,0,1,.28.39c.06.19.17.22.34.24A5.57,5.57,0,0,1-68.12,91a2.25,2.25,0,0,0,0,.44c0,.17-.08.32-.11.49s0,.26,0,.38-.09.26-.11.39,0,.28,0,.42-.08.2-.11.3,0,.19,0,.29,0,.25-.1.31,0,0,0,.07a1.13,1.13,0,0,1-.11.48,5.82,5.82,0,0,0-.2.68,2.43,2.43,0,0,1-.22.46,1.14,1.14,0,0,0-.15.36c0,.28-.3.37-.36.62,0,0-.13.07-.24.11V91.62a.6.6,0,0,0-.24-.51,3.25,3.25,0,0,1-.31-.42l-.4-.48c-.07-.1-.13-.2-.19-.3a1,1,0,0,0-.17-.27,4.35,4.35,0,0,1-.7-.9c-.1-.14-.24-.24-.36-.38a3,3,0,0,1-.18-.3l-.33-.44-.21-.27c-.14-.16-.28-.31-.41-.48s-.21-.34-.32-.5a2.27,2.27,0,0,0-.18-.25c-.13-.17-.26-.35-.4-.52s-.22-.26-.33-.39a3.3,3.3,0,0,0-.22-.3l-.24-.31c-.11-.14-.2-.28-.32-.42l-.36-.48a4.59,4.59,0,0,1-.33-.44,1.27,1.27,0,0,0-.27-.34,1.28,1.28,0,0,1-.29-.4,2.15,2.15,0,0,0-.4-.5l-.24-.28c-.13.17-.25.31-.35.46s-.1.24-.17.34a2.72,2.72,0,0,1-.37.58,2.79,2.79,0,0,0-.19.33c-.12.21-.26.39-.38.59s-.12.27-.2.41-.09.15-.14.23-.27.36-.39.55-.11.23-.17.34-.26.38-.38.58-.12.24-.19.35l-.33.55c-.11.19-.25.44-.38.65l-.33.54c-.08.13-.15.25-.23.36s-.22.42-.38.61a3.88,3.88,0,0,0-.35.63c-.09.18-.21.34-.31.51l-.21.37-.24.39c-.08.13-.13.24-.2.36l-.13.21c-.13.18-.26.35-.38.54a3.79,3.79,0,0,1-.18.34c-.11.2-.24.41-.37.6a3.7,3.7,0,0,0-.35.61c-.11.19-.24.37-.35.56a3.24,3.24,0,0,0-.2.36,4.35,4.35,0,0,0-.38.57,2.21,2.21,0,0,1-.18.34c-.12.18-.22.37-.33.56l-.39.67-.37.53c-.07.1-.12.22-.18.32s-.27.41-.39.63-.22.41-.34.62c0,.06-.09.11-.12.17s-.25.37-.37.56a2,2,0,0,0-.2.42q-.12.44-.45.18c-.15-.12-.31-.2-.47-.33s-.07-.1-.06-.11c.11-.18.23-.35.35-.53l.2-.34c.12-.2.25-.38.37-.58a3.73,3.73,0,0,0,.2-.4c0-.08.09-.16.14-.24s.26-.36.38-.56.22-.42.33-.62a1.18,1.18,0,0,1,.13-.18c.12-.19.24-.38.35-.57s.16-.29.23-.44l.15-.23c.12-.18.25-.34.37-.52a2.31,2.31,0,0,1,.18-.35c.14-.18.18-.44.38-.58s.12-.22.18-.33.26-.38.37-.58.23-.43.34-.64.14-.2.2-.32.23-.24.25-.43.08-.1.12-.15.25-.38.37-.57.12-.24.2-.35.27-.38.38-.58.22-.44.34-.65.2-.34.31-.51.16-.25.25-.37.26-.38.38-.58.11-.24.18-.35.22-.36.34-.55l.36-.6.4-.62a2.21,2.21,0,0,1,.18-.34c.15-.18.19-.43.38-.58s.12-.23.19-.34.24-.38.35-.57l.35-.66c.07-.12.15-.22.22-.34l.2-.34a2.43,2.43,0,0,0,.14-.2c.13-.2.26-.39.38-.59s.11-.33.21-.4a.28.28,0,0,0,.09-.38,4,4,0,0,1-.17-.37.83.83,0,0,1,0-.78.09.09,0,0,0,0-.06c0-.29.23-.41.39-.57a1.56,1.56,0,0,1,.2-.16,1.29,1.29,0,0,1,.77-.11.42.42,0,0,0,.35-.3,1.08,1.08,0,0,1,.15-.28l.34-.53c.11-.18.23-.43.36-.64a2.38,2.38,0,0,1,.18-.3,1.43,1.43,0,0,0,.26-.45c0-.1.14-.17.21-.26a.2.2,0,0,0,0-.08.88.88,0,0,1,.24-.39,1.69,1.69,0,0,0,.19-.32c.13-.2.27-.39.39-.59s.11-.25.18-.36.17-.25.25-.39.11-.23.18-.34.26-.37.38-.57.11-.24.18-.34.25-.38.38-.57l0-.07.2-.37c.13-.22.26-.45.39-.66s.25-.36.38-.55A3.65,3.65,0,0,1-71.4,70,5.6,5.6,0,0,1-71,69.4a3.51,3.51,0,0,0,.33-.6l.13-.17c.13-.2.26-.4.38-.61s.13-.27.21-.4a1.82,1.82,0,0,1,.15-.27c.12-.17.26-.33.39-.5s.09-.22.15-.32a6.49,6.49,0,0,0,.39-.62c.06-.1.06-.23.17-.31s.11-.32.27-.4.09-.15.13-.22.2-.38.32-.56l.39-.61a2.68,2.68,0,0,1,.18-.33c.14-.18.2-.41.36-.59a3.63,3.63,0,0,0,.36-.64l.13-.2c.14-.24.27-.5.43-.73s.27-.36.4-.54.1-.23.16-.33.26-.38.38-.58.11-.23.18-.34.25-.38.38-.57a.3.3,0,0,1,0-.08c.13-.22.26-.44.4-.66s.11-.24.18-.36.26-.37.38-.55l.17-.3c.1-.15.14-.36.29-.48A.82.82,0,0,1-63.17,56.35Z" transform="translate(250.4 0)"/><path class="cls-2" d="M-67.15,89.62h3.35s0,0,0,0a9.43,9.43,0,0,0,.17,1.17c.08.27.07.56.16.81a2.07,2.07,0,0,1,.11.55c0,.06.05.1.07.16a.66.66,0,0,1,.06.2c0,.15,0,.33.13.43v0c0,.23.09.46.16.68s.15.41.23.61c0,0,0,0,0,.07a1.94,1.94,0,0,0,.26.61c.08.14.11.31.19.45s.16.27.24.41a3.72,3.72,0,0,0,.19.34c.23.25.12.56.12.85,0,1.49,0,3,0,4.47v.19a2.9,2.9,0,0,0,1.38.23,7.3,7.3,0,0,1,1.47.18c.36.09.72,0,1.06.12a2.68,2.68,0,0,1,.67.24,1.75,1.75,0,0,1,.46.35,1.11,1.11,0,0,1,.35.5,2.22,2.22,0,0,0,.2.41s0,0,0,.05c.06.18.11.37.18.55s.17.32.24.49a2.84,2.84,0,0,0,.17.49c.13.17.07.43.26.55a0,0,0,0,1,0,0c.06.18.1.36.16.52s.18.35.25.54.11.32.17.48.17.36.25.55.11.32.17.47.17.39.26.58l0,0c0,.18.09.35.15.52s.14.29.21.43,0,.08,0,.13a2.27,2.27,0,0,0,.26.6,2.84,2.84,0,0,1,.17.49c.08.23.18.46.25.7a2.07,2.07,0,0,1,0,.35,2.65,2.65,0,0,1-.23.92c-.12.37-.43.52-.61.81,0,0,0,0,0,0a1.83,1.83,0,0,0-.46.18c-.24.19-.5.11-.75.12a1.22,1.22,0,0,1-.71-.27,2,2,0,0,1-.48-.38,2.25,2.25,0,0,1-.41-.68c-.05-.16-.05-.4-.23-.5l0,0a3.62,3.62,0,0,0-.17-.56c-.11-.27-.25-.53-.37-.81s-.11-.33-.18-.48a1.86,1.86,0,0,0-.24-.56,1.14,1.14,0,0,1-.15-.36c-.06-.2-.11-.4-.18-.59s-.08-.21-.13-.31-.17-.34-.25-.52l0-.06c-.09-.21-.18-.41-.25-.61s-.11-.37-.18-.55a5.14,5.14,0,0,0-.23-.47.58.58,0,0,1,0-.18.21.21,0,0,0-.16-.24h0l-1.29-.15a12.74,12.74,0,0,1-1.73-.2c-.4-.1-.8,0-1.17-.14a7.61,7.61,0,0,0-1.42-.15,2.88,2.88,0,0,1-.72-.15,1.38,1.38,0,0,1-.58-.32,4.89,4.89,0,0,0-.4-.39s-.06,0-.11,0,0,.21,0,.31a1.45,1.45,0,0,1-.11.54,1.75,1.75,0,0,0,0,.56.8.8,0,0,1-.11.5c0,.06,0,.2,0,.29a2.46,2.46,0,0,1-.12.89,2.24,2.24,0,0,0,0,.64,1.14,1.14,0,0,1-.09.26.75.75,0,0,0,0,.16c0,.15,0,.31,0,.46s-.07.33-.09.5,0,.24,0,.36a2,2,0,0,1-.12.83c0,.07,0,.2,0,.32a14.41,14.41,0,0,1-.18,1.61c-.07.3,0,.61-.12.88s-.06.85-.17,1.25a6.12,6.12,0,0,0-.1.86,1.68,1.68,0,0,1-.09.32.41.41,0,0,0,0,.16,2.76,2.76,0,0,1-.13,1c-.07.15,0,.37,0,.56s0,.35-.11.46,0,.09,0,.14c0,.2,0,.42,0,.63l-.09.26a2.71,2.71,0,0,0,0,.4,1.11,1.11,0,0,1-.22.55,2.2,2.2,0,0,1-.21.32,3.47,3.47,0,0,1-.45.41,1.12,1.12,0,0,1-.44.24,4.61,4.61,0,0,1-1,0c-.14,0-.28-.15-.42-.24a1.21,1.21,0,0,1-.3-.2,2.37,2.37,0,0,1-.41-.48,2.88,2.88,0,0,1-.17-.52,1.42,1.42,0,0,1-.11-.35,2.28,2.28,0,0,1,0-.45s0-.1,0-.16a3.54,3.54,0,0,1,0-.46,1.14,1.14,0,0,1,.09-.52,2,2,0,0,0,0-.54.86.86,0,0,1,.1-.52c0-.06,0-.2,0-.29a14.87,14.87,0,0,1,.18-1.65c.08-.34,0-.69.14-1s0-.79.14-1.15,0-.68.14-1,0-.75.14-1.08,0-.79.14-1.14,0-.77.15-1.11,0-.69.13-1,.06-.76.16-1.12,0-.65.12-1,0-.82.16-1.21,0-.65.13-.94,0-.78.14-1.12,0-.68.13-1A14.54,14.54,0,0,0-70,98a.39.39,0,0,1,.21-.37,2.11,2.11,0,0,0,.8-.77,1.73,1.73,0,0,0,.29-.51,1.76,1.76,0,0,1,.24-.42.08.08,0,0,0,0,0,.66.66,0,0,1,.12-.32,3.58,3.58,0,0,0,.18-.64c.07-.23.15-.47.23-.7v0c.06-.26.12-.52.17-.79a5.46,5.46,0,0,1,.17-1c.13-.3,0-.56.14-.8.14-.39,0-.81.15-1.16A4.66,4.66,0,0,0-67.15,89.62Z" transform="translate(250.4 0)"/><path class="cls-2" d="M-73.81,99.34V93a1.23,1.23,0,0,1,.52-1,1,1,0,0,1,.57-.19c.7,0,1.4,0,2.1,0,.15,0,.22,0,.22.22v8.14c0,.16-.06.33-.1.49s0,.26,0,.38a13.81,13.81,0,0,1-.18,1.59c-.08.32,0,.64-.12.92s0,.81-.16,1.18a4.77,4.77,0,0,0-.11,1,2,2,0,0,1-.08.22.53.53,0,0,0,0,.17c0,.2,0,.4,0,.61s-.1.37-.35.37-.45,0-.67,0a3.88,3.88,0,0,1-.84-.14,1,1,0,0,1-.39-.36,1.85,1.85,0,0,1-.25-.37.45.45,0,0,1,0-.2v-6.6Z" transform="translate(250.4 0)"/><path class="cls-2" d="M-61.72,94.6c-.12-.27-.24-.51-.34-.76a3.16,3.16,0,0,0-.12-.37,4.76,4.76,0,0,1-.2-.74c-.06-.26-.15-.51-.22-.76,0,0,0,0,0,0-.05-.31-.11-.61-.16-.92a1.12,1.12,0,0,0-.1-.4,2.09,2.09,0,0,1,0-.56c0-.16,0-.32-.08-.53.15-.1.36-.23.55-.37s.17-.15.26-.22l.33-.21.79-.57c.11-.07.23-.12.33-.19l.53-.39a2,2,0,0,1,.31-.2l.65-.44c.12-.07.24-.12.36-.2l.17-.14.54-.4c.19-.13.39-.23.58-.36s.34-.27.51-.39l.58-.37c.19-.12.35-.26.53-.4,0,0,0,0,.05,0,.18,0,.27-.16.39-.26a3.53,3.53,0,0,1,.32-.21c.13-.08.25-.2.38-.27s.2-.1.27-.17.43-.2.59-.42.22-.12.32-.2l.53-.37c.13-.09.27-.17.39-.26s.19-.16.29-.24,0,0,0,0a2.85,2.85,0,0,0,.3-.16l.54-.39a2.8,2.8,0,0,0,.6-.39c.15-.18.35-.12.52-.24s.26,0,.4,0,.09,0,.13,0c.27,0,.41.22.58.38a1.46,1.46,0,0,1,.23,1.34.88.88,0,0,1-.3.45,2,2,0,0,1-.61.46c-.18.08-.32.28-.5.41s-.4.22-.6.34-.13.1-.2.15c-.23.15-.46.3-.68.46s-.33.28-.5.4-.41.24-.61.36a1.49,1.49,0,0,0-.2.15,1.28,1.28,0,0,1-.49.31c-.06,0-.1.1-.16.14a6.54,6.54,0,0,1-.52.4l-.31.19c-.12.11-.28.12-.4.27s-.22.09-.32.19-.33.28-.51.41l0,0a3.35,3.35,0,0,0-.36.21c-.22.14-.44.28-.65.43l-.5.41,0,0c-.12.07-.24.12-.36.2l-.33.27-.41.29c-.1.07-.21.12-.31.18s-.35.27-.53.39-.42.24-.61.37-.33.27-.5.4-.22.13-.32.21l-.59.44a.33.33,0,0,0-.05.21v2.46S-61.59,94.62-61.72,94.6Z" transform="translate(250.4 0)"/><path class="cls-2" d="M-65.78,81.27h.58a1.57,1.57,0,0,1,.3.12l.09,0a2.33,2.33,0,0,1,.65.28c.28.11.46.38.72.52.11.07.17.22.25.33s.19.25.28.38a3,3,0,0,1,.24.38c.08.2.11.4.19.61a4,4,0,0,1,.11,1.62,1.76,1.76,0,0,1-.23.81c-.06.14-.1.31-.17.44a1.86,1.86,0,0,1-.39.57c-.12.09-.2.25-.32.36s-.27.35-.49.41a1.13,1.13,0,0,0-.36.24,0,0,0,0,1,0,0l-.56.18a2.05,2.05,0,0,1-1,.13,7.25,7.25,0,0,1-1-.16,1.55,1.55,0,0,1-.41-.25,3.24,3.24,0,0,1-.32-.17,3.56,3.56,0,0,1-.66-.57c-.16-.19-.28-.41-.42-.61a3.88,3.88,0,0,1-.45-1.14,3.85,3.85,0,0,1-.08-1.22,3.47,3.47,0,0,1,.15-.78,1.65,1.65,0,0,1,.27-.62c.13-.18.17-.41.37-.55a4.33,4.33,0,0,0,.46-.5,2.43,2.43,0,0,1,.32-.24c.07-.05.12-.11.19-.15l.48-.26s.11,0,.15,0l.28-.11.14,0Zm.62,6.53a4,4,0,0,0,.39-.15c.13,0,.25,0,.33-.15a.28.28,0,0,1,.18-.14c.28-.07.33-.38.49-.56s.09-.28.17-.36.1-.23.11-.36a.1.1,0,0,0,0-.08.15.15,0,0,0-.08,0,1.26,1.26,0,0,1-.24.22l-.44.2a1.27,1.27,0,0,1-.7.28.2.2,0,0,0-.11,0c-.11.14-.26.1-.4.12l-1,.15s0,0,0,0,0,.07,0,.08a1.64,1.64,0,0,0,.25.19,1.87,1.87,0,0,1,.4.2c.26.2.56.07.77.27Z" transform="translate(250.4 0)"/><path class="cls-2" d="M-35.66,82.94c-.19-.07-.26.15-.4.2s-.27.17-.41.24a5.83,5.83,0,0,1-.62.28l-.07,0a3.61,3.61,0,0,1-1,0c-.2-.06-.45,0-.63-.23a.22.22,0,0,0-.3,0l-.06.08a0,0,0,0,1,0,0c-.26,0-.48.23-.77.17a1.5,1.5,0,0,0-.3,0c-.12,0-.23,0-.32-.12s-.44,0-.52.06,0,0,0,0a2.13,2.13,0,0,1-.61.12.64.64,0,0,1-.5-.23c-.1-.14-.26-.21-.36-.35a1.07,1.07,0,0,1-.17-.46c0-.16-.07-.34.07-.49s0-.13,0-.19a1.06,1.06,0,0,1,.42-.53,1.28,1.28,0,0,1,.81-.14.8.8,0,0,1,.63.4s.07,0,.1.06c.1-.24-.07-.34-.18-.44a1.55,1.55,0,0,0-.43-.29.72.72,0,0,0-.29,0h-.2a.83.83,0,0,1,.23-.64s.08-.12.13-.18a2.08,2.08,0,0,1,.71-.57c.4-.23.8-.08,1.22-.12,0,0,.07.06.11.07a.81.81,0,0,0,.22.07.61.61,0,0,0,0-.12,2,2,0,0,0-.32-.18c-.2-.09-.42-.15-.65-.23,0-.08-.06-.19.1-.27s.11-.18.17-.27a2.4,2.4,0,0,1,.64-.63,2.78,2.78,0,0,1,1.76-.54,1.75,1.75,0,0,1,.64.14c.24.1.46.28.7.38s.4.35.61.53a2.14,2.14,0,0,1,.32.52l.24.39s0,0,0,0a4.38,4.38,0,0,1,.13,1.65c-.18.16,0,.46-.22.64a1.7,1.7,0,0,0-.18.41,1.76,1.76,0,0,1-.14.23l-.27.33A.41.41,0,0,0-35.66,82.94Z" transform="translate(250.4 0)"/><path class="cls-2" d="M-44.89,91.88a2.61,2.61,0,0,0,.19-1.27.37.37,0,0,0-.09-.27c-.07-.08-.05-.26-.07-.41a3.42,3.42,0,0,1,.64,0c.15,0,.27.17.42.24a.58.58,0,0,1,.3.18c.08.11.2.18.24.34a2.18,2.18,0,0,0,.22.43s0,0,0,0a2.16,2.16,0,0,1,0,1,.16.16,0,0,0-.05.09.61.61,0,0,1-.23.42.83.83,0,0,0-.07.13.41.41,0,0,1-.07.11c-.12.1-.26.19-.39.28l0,0c-.29,0-.56.25-.87.16a2.94,2.94,0,0,1-.51-.23c-.1,0-.24,0-.29-.19a.16.16,0,0,0-.23,0,.05.05,0,0,0,0,0s0,0,0,0a2.82,2.82,0,0,0-.51.19.88.88,0,0,1-.65.11,1.6,1.6,0,0,1-.66-.24,1.4,1.4,0,0,0-.43-.2c-.08,0-.21,0-.24.11s0,0,0,0c-.25,0-.47.24-.73.14s-.29-.17-.43-.23-.23-.08-.29-.22,0-.09-.07-.14,0-.09,0-.11c-.27-.3-.11-.66-.09-1,0-.15.2-.29.32-.44s.11-.09.15-.14c.17-.2.4-.13.61-.17a.33.33,0,0,0,.14-.1c.11-.15.11-.37.27-.5s.11-.21.17-.31a.59.59,0,0,1,.33-.29c.07,0,.13-.1.2-.15a1.6,1.6,0,0,1,1.16-.28,2.57,2.57,0,0,1,.6.23,1.38,1.38,0,0,1,.48.35,2.49,2.49,0,0,1,.5.77A4,4,0,0,1-45,91.69C-45,91.79-45,91.91-44.89,91.88Z" transform="translate(250.4 0)"/><path class="cls-2" d="M-39.43,104.78a3.11,3.11,0,0,1,.61,0,1.2,1.2,0,0,1,.65.26l0,0a1.26,1.26,0,0,1,.67.44A6.38,6.38,0,0,1-37,106a2.11,2.11,0,0,1,.2.43l.22.46a.36.36,0,0,1,0,.09,4.43,4.43,0,0,1,.12.88,4.73,4.73,0,0,1-.14,1,2.34,2.34,0,0,1-.26.68,4.81,4.81,0,0,1-.4.52,1.36,1.36,0,0,1-.51.47,3.39,3.39,0,0,0-.53.38h0a2.66,2.66,0,0,1-.63.17,5.06,5.06,0,0,1-1.1,0,1.06,1.06,0,0,1-.62-.24l0,0a2.44,2.44,0,0,1-.44-.19,2.47,2.47,0,0,1-.37-.35,4.48,4.48,0,0,1-.36-.4c-.08-.1-.12-.25-.2-.36a.77.77,0,0,1-.17-.38,2.33,2.33,0,0,0-.11-.28l-.09-.25a.93.93,0,0,1,0-.23c0-.31,0-.61,0-.92a.75.75,0,0,1,.09-.29l0-.09a2.69,2.69,0,0,1,.16-.62,3.56,3.56,0,0,1,.61-.83c.13-.12.25-.26.38-.39s0,0,0,0a4.21,4.21,0,0,0,.75-.34C-40.06,104.68-39.74,104.84-39.43,104.78Zm0,5.45h.62a.25.25,0,0,0,.12,0l.45-.28a1.78,1.78,0,0,0,.31-.23c.12-.16.2-.35.33-.5a2.23,2.23,0,0,0,.36-.89,2.64,2.64,0,0,0-.13-1.24s0,0,0,0-.14-.25-.22-.37a2.34,2.34,0,0,0-.33-.49,2.75,2.75,0,0,0-.72-.46,3.3,3.3,0,0,0-.88-.14,1.16,1.16,0,0,0-.44.12,5.31,5.31,0,0,0-.56.2s0,0,0,0l-.25.21a3.26,3.26,0,0,0-.34.4,3.72,3.72,0,0,0-.19.34,1.46,1.46,0,0,0-.22.58v1a.48.48,0,0,0,0,.18,3.61,3.61,0,0,1,.22.44,1.72,1.72,0,0,0,.53.68,1.59,1.59,0,0,0,.33.25,1.68,1.68,0,0,0,.48.2,3.62,3.62,0,0,0,.57,0Z" transform="translate(250.4 0)"/><path class="cls-2" d="M-70.85,91.1l-.22,0c-.75,0-1.49,0-2.23,0a1.1,1.1,0,0,1-.8-.41,1.82,1.82,0,0,1-.3-.68,8.38,8.38,0,0,1-.08-1.8c.15-.19.06-.46.2-.66a1.38,1.38,0,0,0,.2-.33c0-.1.22-.08.29,0s.31.37.45.56.25.35.38.51.23.28.35.42l.06.06c0,.24.24.33.34.51a4,4,0,0,0,.4.52l.35.42a1.3,1.3,0,0,1,.18.23,2.17,2.17,0,0,0,.19.33,1.36,1.36,0,0,0,.24.24Z" transform="translate(250.4 0)"/><path class="cls-2" d="M-35.67,82.94c.16.06.2-.12.3-.19a2.5,2.5,0,0,0,.39-.46,1.59,1.59,0,0,0,.15-.29,4.5,4.5,0,0,0,.17-.6,2.87,2.87,0,0,0,.14-1s.09-.08.14-.09a1,1,0,0,1,.66.18,1.86,1.86,0,0,1,.48.49A1.61,1.61,0,0,1-33,82.26a1.31,1.31,0,0,1-.38.85,4.27,4.27,0,0,0-.36.38l0,0q-.34.11-.69.18a1.44,1.44,0,0,1-.87-.17.92.92,0,0,1-.33-.32c0-.06,0-.18,0-.27Z" transform="translate(250.4 0)"/><path class="cls-2" d="M-66.53,106.86c0-.1,0-.19.07-.29s0-.37,0-.55a.6.6,0,0,1,.16-.44c.11,0,.24,0,.29.12.21.24.52.06.75.23s.25,0,.39,0a2,2,0,0,1,.55,0,6.48,6.48,0,0,0,1.38.15.5.5,0,0,1,.25.13.16.16,0,0,1,0,.15l-.43.44h0a4.94,4.94,0,0,1-.77.12h-2.23C-66.29,107-66.45,107-66.53,106.86Z" transform="translate(250.4 0)"/><path class="cls-2" d="M-64.87,89.09s0-.06.05-.06a2.8,2.8,0,0,0,.64-.2c.2-.12.43-.17.58-.38s.18-.13.27-.21a2.43,2.43,0,0,0,.72-.84c0-.09.13-.3.31-.22s.17.09.18.16.23.17.19.35a.12.12,0,0,0,0,.09,2.6,2.6,0,0,0,.13.24l-.6.5c-.1.08-.22.11-.32.18l-.54.4a.39.39,0,0,1-.21.06h-1.17Z" transform="translate(250.4 0)"/><path class="cls-2" d="M-65.16,87.8c-.2-.2-.51-.07-.75-.28a1.66,1.66,0,0,0-.4-.2,2.48,2.48,0,0,1-.26-.19s0-.06,0-.08,0,0,0,0l1-.15c.14,0,.29,0,.4-.12a.14.14,0,0,1,.11,0,1.3,1.3,0,0,0,.7-.28l.44-.2.24-.22s.06,0,.08,0a.09.09,0,0,1,.05.08c0,.13,0,.25-.11.36s-.09.26-.17.36-.2.49-.49.55a.34.34,0,0,0-.18.15c-.08.16-.21.11-.33.15S-65,87.75-65.16,87.8Z" transform="translate(250.4 0)"/><path class="cls-2" d="M-39.42,110.24a5.23,5.23,0,0,1-.56,0,1.59,1.59,0,0,1-.48-.21,1,1,0,0,1-.33-.25,1.72,1.72,0,0,1-.53-.68c-.07-.15-.14-.29-.22-.43a.29.29,0,0,1,0-.18v-1a1.58,1.58,0,0,1,.22-.58c.07-.1.11-.24.18-.34s.23-.27.35-.4a2.12,2.12,0,0,1,.24-.2s0,0,0-.05l.56-.2a1.35,1.35,0,0,1,.45-.11,2.88,2.88,0,0,1,.87.14,2.43,2.43,0,0,1,.72.45,2.27,2.27,0,0,1,.34.49l.22.38,0,0a2.71,2.71,0,0,1,.12,1.23,2,2,0,0,1-.36.9c-.12.14-.2.34-.32.49a1.66,1.66,0,0,1-.31.23c-.15.1-.3.2-.45.28a.19.19,0,0,1-.13,0h-.61Z" transform="translate(250.4 0)"/></svg>