<svg id="Capa_1" data-name="Capa 1" xmlns="http://www.w3.org/2000/svg" viewBox="0 0 100 100"><defs><style>.cls-1{fill:#fff;}</style></defs><title>rappeliconinter</title><path class="cls-1" d="M66.18,96.39l2.09-1.63a.46.46,0,0,0,.07-.14l-.68-.23a2.4,2.4,0,0,1-1-.51c-.19-.16-.36-.35-.56-.5l-2.58-2-.23-.15h0c.9,1.77,1.82,3.5,2.77,5.24Z" transform="translate(-53.82 -35.83)"/><path class="cls-1" d="M103.82,35.83a50,50,0,1,0,50,50A50,50,0,0,0,103.82,35.83ZM71.17,57.64a8,8,0,0,1-.41-1.06,3.89,3.89,0,0,1-.13-.68c0-.29-.1-.57-.12-.85a3,3,0,0,1,.09-1.11c.05-.21.09-.41.12-.62a5.58,5.58,0,0,1,.66-1.74,6.15,6.15,0,0,1,1.84-2,5.36,5.36,0,0,1,1.86-.86l.51-.1a.58.58,0,0,0,.15-.11h1.54c0,.1.11.1.18.11a5.47,5.47,0,0,1,2.31.93,6,6,0,0,1,2,2.3,6.57,6.57,0,0,1,.59,1.75,6.79,6.79,0,0,1,.06,2.11,5.7,5.7,0,0,1-.54,1.88,6.18,6.18,0,0,1-2.55,2.79,5.56,5.56,0,0,1-1.62.62,6,6,0,0,1-2.19,0,5.57,5.57,0,0,1-2.22-.9A6.26,6.26,0,0,1,71.17,57.64Zm15.5,55.77c-.46,1-.94,2.08-1.41,3.13s-1,2.18-1.44,3.27a6.31,6.31,0,0,1-.71,1.33,4,4,0,0,1-1.59,1.23,3.61,3.61,0,0,1-1.56.32,4,4,0,0,1-2.39-.88,4.08,4.08,0,0,1-1.3-1.87,4.38,4.38,0,0,1-.18-2.21,8.21,8.21,0,0,1,.58-1.64c.23-.54.47-1.06.71-1.59l1.32-3c.36-.82.7-1.63,1.06-2.44.46-1.07.95-2.12,1.42-3.19.25-.57.49-1.16.74-1.74s.44-1,.66-1.5a.82.82,0,0,0,.07-.3c.06-1.23.13-2.45.18-3.68,0-.59,0-1.17,0-1.76V92.23c0-.8-.06-1.61-.1-2.41,0-.34-.06-.69-.1-1s-.13-.93-.21-1.39-.14-.7-.23-1.05a2.26,2.26,0,0,0-.13-.33.36.36,0,0,1,0-.09,6.47,6.47,0,0,0-.4-1.57c-.26-.89-.6-1.75-.94-2.61-.39-1-.8-2-1.24-3s-.83-1.89-1.24-2.84S77.39,74,77,73c-.2-.48-.37-1-.55-1.46s-.4-1.12-.58-1.68a8.76,8.76,0,0,1-.25-1c-.1-.44-.19-.89-.26-1.35a5.85,5.85,0,0,1,0-.73,5,5,0,0,1,.11-1.34,1.83,1.83,0,0,1,.37-.72,11,11,0,0,1,1.78-1.9A17.13,17.13,0,0,1,80.07,61a14.83,14.83,0,0,1,1.86-1,10.62,10.62,0,0,1,1.83-.61,4.51,4.51,0,0,1,2.19,0,7.71,7.71,0,0,1,2.28,1,8.32,8.32,0,0,1,1.31,1.12l4,4.13,3.3,3.45a1.38,1.38,0,0,0,.62.36c.42.11.83.26,1.25.39l1.26.38.82.26.42.14a.26.26,0,0,0,.23-.08l1.63-1.28,2.11-1.64,2.91-2.26,4.15-3.23,3-2.35,5.28-4.11,2.72-2.15.13-.09a.14.14,0,0,1,.23,0l1.11,1.57c.06.09,0,.15,0,.21l-.92.71-2.75,2.14c-1.33,1-2.65,2.09-4,3.12L113,64.44,109,67.64l-4.51,3.55c-.12.08-.23.17-.34.26l-.15.15.8.27,1.25.38c.28.08.55.18.83.27a3,3,0,0,1,1.44,1.12,2.88,2.88,0,0,1,.54,1.26,3.5,3.5,0,0,1,0,1.61,5.24,5.24,0,0,1-.3.78,1,1,0,0,0,0,.64c0,.33.11.65.16,1s.12.61.17.91.08.43.11.64.08.57.13.85.11.58.16.87.09.48.12.72c.09.49.16,1,.25,1.49.05.32.12.63.18,1s.07.42.11.64.08.58.13.87.11.58.16.87.08.42.11.64.08.58.13.87.11.6.17.89l.12.7c.08.51.16,1,.25,1.54s.18,1,.27,1.49c0,.28.08.56.13.84s.11.6.16.89.09.45.12.67.08.6.13.9.07.41.1.62c.1.51.2,1,.29,1.54.05.3.09.61.14.92s.11.58.17.87.08.42.11.64l.12.87c0,.29.11.56.16.85a.68.68,0,0,1-.38.16,2.44,2.44,0,0,0-.39.07l-1.31.23a2.41,2.41,0,0,1-.16-.6l-.18-1c0-.28-.08-.56-.13-.84s-.11-.62-.17-.92l-.12-.67-.12-.87c-.05-.29-.11-.58-.17-.87s-.09-.53-.13-.79c-.1-.58-.21-1.15-.31-1.73,0-.25-.07-.51-.12-.77s-.12-.66-.17-1-.08-.41-.11-.61-.08-.57-.13-.85-.1-.6-.16-.9l-.12-.69-.24-1.49-.18-1c0-.2-.08-.42-.11-.64s-.08-.58-.13-.87-.11-.58-.17-.87-.07-.42-.11-.64l-.12-.85c0-.28-.12-.61-.17-.91s-.09-.52-.13-.78c-.09-.5-.17-1-.25-1.52s-.13-.8-.2-1.2-.13-.75-.22-1.17a.76.76,0,0,0-.26,0,2.69,2.69,0,0,1-1.26-.1c-.27-.07-.53-.18-.8-.26a.41.41,0,0,0-.22,0l-3.12,1.77L98.17,81.8,96,83c-.19.11-.19.1-.29-.09-.27-.51-.53-1-.79-1.53l-.12-.24a.64.64,0,0,1,.15-.13l2.37-1.33,2-1.15c.46-.26.94-.52,1.4-.79l.28-.19-.83-.26L99.2,77l-.78-.23-.59-.19a.42.42,0,0,0-.43.07c-1,.82-2.05,1.61-3.08,2.41-.16.13-.32.27-.49.39a.17.17,0,0,0-.07.24h0c.28.51.55,1,.82,1.53l1.89,3.5c.12.21.23.43.34.65a.51.51,0,0,0,.24.24c.61.27,1.22.56,1.82.84l2,.94,1.93.91,2.52,1.18c.39.18.78.36,1.15.57A3.86,3.86,0,0,1,108,91.77a4,4,0,0,1,.44,1.37c.06.43.13.86.19,1.29s.12.63.17.94.07.48.11.73l.12,1c0,.32.11.66.17,1a.69.69,0,0,0,0,.13l.42,2.78c0,.35.08.69.13,1s.12.67.17,1,.08.48.11.72.08.68.13,1,.11.63.16,1a6.85,6.85,0,0,1,.11,2.07,4.21,4.21,0,0,1-1.67,2.83,3.81,3.81,0,0,1-1.28.62,3.21,3.21,0,0,1-1.48.11,4,4,0,0,1-3.12-2.39,3.63,3.63,0,0,1-.3-1c-.08-.55-.19-1.09-.27-1.64-.12-.83-.23-1.67-.35-2.5,0-.35-.12-.7-.18-1.06s-.07-.48-.1-.72-.08-.67-.13-1-.11-.67-.17-1a.22.22,0,0,0,0-.08c0-.35-.08-.71-.13-1.06s-.11-.63-.16-1-.1-.63-.13-1a.34.34,0,0,0-.2-.3l-1.94-.89-2.53-1.16-1.73-.79L92.75,93,91,92.18l-.4-.18c0,.13,0,.21,0,.29l0,9v2.59a2.88,2.88,0,0,1-.24,1.11c-.46,1.09-.94,2.18-1.41,3.27l-1.2,2.66C87.39,111.75,87,112.58,86.67,113.41Zm43.7,8.57a.75.75,0,0,0-.07.12c0,.14-.07.27-.11.4a2.53,2.53,0,0,1-1.72,1.56s-.06,0-.09.08H89c0-.38-.06-.75-.08-1.12,0-.53-.05-1-.08-1.59v-.26l.72-.21,1-.26.39-.1c.4-.1.81-.19,1.21-.3l1.6-.44.88-.22c.29-.07.57-.17.87-.24l.86-.21.81-.22,1.34-.35c.29-.08.58-.18.87-.25l.88-.22.87-.24.84-.21,1-.27.86-.21c.17,0,.34-.1.51-.15a2.6,2.6,0,0,1,.4-.1.2.2,0,0,0,.16-.18s0-.05,0-.08l.12-1.06c0-.35.09-.68.14-1v0c0-.34.06-.68.1-1s.1-.66.14-1a2.85,2.85,0,0,0,0-.29.17.17,0,0,1,.14-.21l.55-.19,1.08-.35,1-.3,1-.34.73-.23,1-.33c.21-.08.43-.14.65-.21l1.06-.35.73-.23.72-.25.69-.21.62-.21a.26.26,0,0,0,.16-.19c.12-.43.26-.85.38-1.28s.25-.88.38-1.32.19-.68.32-1a.91.91,0,0,0-.09-.72c-.22-.55-.45-1.1-.67-1.64l-.83-2-.54-1.33-.66-1.61-.8-2c-.19-.47-.39-.94-.57-1.42a.6.6,0,0,1,0-.35c.11-.38.25-.75.37-1.13s.26-.77.38-1.15.27-.82.41-1.23l.54-1.68c.13-.4.28-.8.41-1.2l.36-1.16c.13-.38.26-.77.38-1.15s.21-.61.31-.92.19-.61.3-.92l.39-1.17.41-1.23c.06-.19.13-.38.19-.58a.3.3,0,0,1,.19-.22l2.22-1,1.9-.86c.29-.12.57-.26.86-.39l.36-1.82c.08-.35.16-.7.23-1.06s.13-.7.19-1.06.16-.67.23-1,.07-.4.1-.59.07-.35.11-.53c.08-.42.17-.84.26-1.27s.16-.69.23-1,.12-.68.19-1,.14-.66.21-1c0-.17.07-.33.11-.5.1-.5.19-1,.29-1.51s.17-.84.26-1.26.18-.84.27-1.27a.79.79,0,0,1,.43,0l.57.15.44.1,1.44.37,1.32.35c.3.08.6.14.9.21s.23.09.24.29a1.38,1.38,0,0,0,0,.2Z" transform="translate(-53.82 -35.83)"/></svg>