<svg id="Capa_1" data-name="Capa 1" xmlns="http://www.w3.org/2000/svg" viewBox="0 0 272.41 384"><defs><style>.cls-1{fill:#fff;}</style></defs><title>rappelicon</title><path class="cls-1" d="M-624.68,288.48c-.14-2.12-.29-4.24-.4-6.37-.16-3-.3-6-.44-9.06,0-.46,0-.93,0-1.47,1.29-.41,2.53-.81,3.79-1.19,1.66-.51,3.34-1,5-1.48.66-.2,1.32-.38,2-.56,2.13-.57,4.27-1.1,6.39-1.72,2.79-.8,5.57-1.69,8.36-2.51,1.53-.45,3.08-.81,4.62-1.25s3-1,4.57-1.4,3-.78,4.51-1.2,2.85-.84,4.28-1.25c2.34-.68,4.69-1.33,7-2,1.53-.45,3.05-1,4.58-1.4s3.08-.8,4.61-1.24,3-.94,4.57-1.39,3-.81,4.42-1.23c1.67-.49,3.34-1,5-1.5,1.5-.43,3-.79,4.51-1.21.9-.25,1.78-.58,2.68-.85a16.29,16.29,0,0,1,2.09-.58c.55-.1.72-.49.82-1a4,4,0,0,0,.09-.5c.2-2,.39-4,.61-6s.49-3.87.73-5.8c0-.08,0-.16,0-.25.19-1.94.35-3.89.56-5.82s.49-3.78.72-5.66a15.44,15.44,0,0,0,.12-1.66,1.1,1.1,0,0,1,.78-1.2c1-.33,1.92-.7,2.89-1.05,1.87-.69,3.74-1.38,5.63-2,1.71-.6,3.44-1.13,5.16-1.73s3.49-1.31,5.24-1.94c1.27-.46,2.56-.86,3.83-1.31,1.7-.62,3.4-1.28,5.11-1.9,1.12-.41,2.26-.78,3.4-1.18l5.56-2c1.28-.45,2.56-.87,3.83-1.33s2.52-.95,3.78-1.39,2.41-.8,3.61-1.22,2.2-.76,3.29-1.19a1.38,1.38,0,0,0,.81-1.07c.63-2.45,1.36-4.87,2-7.32s1.34-5,2-7.51c.53-1.92,1-3.86,1.66-5.75a5.83,5.83,0,0,0-.43-4.12c-1.2-3.11-2.38-6.24-3.56-9.36l-4.35-11.55-2.84-7.62c-1.14-3.05-2.3-6.09-3.44-9.14l-4.2-11.21c-1-2.69-2.06-5.37-3-8.09a3.67,3.67,0,0,1-.1-2c.59-2.16,1.3-4.27,1.95-6.41s1.34-4.39,2-6.58c.71-2.34,1.43-4.68,2.14-7,.95-3.18,1.88-6.38,2.84-9.56.7-2.3,1.45-4.58,2.15-6.89s1.25-4.39,1.9-6.58,1.33-4.39,2-6.58c.54-1.74,1.09-3.47,1.62-5.21s1-3.5,1.56-5.25q1-3.35,2.06-6.69l2.13-7c.33-1.11.72-2.21,1-3.35a1.64,1.64,0,0,1,1-1.22q5.82-2.93,11.65-5.81c3.33-1.65,6.67-3.26,10-4.9,1.48-.73,2.95-1.5,4.47-2.27.64-3.47,1.27-6.91,1.92-10.35.39-2,.84-4,1.22-6.06s.67-4,1-6,.8-3.86,1.17-5.8c.22-1.11.36-2.25.56-3.37s.36-2,.54-3c.46-2.41.91-4.82,1.37-7.23.39-2,.83-3.94,1.2-5.92s.65-3.91,1-5.85.76-3.78,1.14-5.68q.28-1.43.54-2.85c.52-2.87,1-5.74,1.55-8.61.44-2.4.88-4.8,1.34-7.2s.94-4.77,1.43-7.24a3.47,3.47,0,0,1,2.26.18c1,.28,2,.57,3,.84.77.21,1.54.39,2.31.6,2.52.69,5,1.37,7.54,2.09,2.31.65,4.61,1.38,6.92,2,1.57.44,3.15.8,4.73,1.18,1,.23,1.2.53,1.28,1.67,0,.37.1.75.15,1.12V276.19a4,4,0,0,0-.38.7,20.72,20.72,0,0,1-.58,2.29c-1.87,4.52-4.7,7.71-9,8.87-.18.05-.32.28-.48.43Z" transform="translate(679.85 95.52)"/><path class="cls-1" d="M-650.26-95.52c.11.47.45.47.78.52a22.4,22.4,0,0,1,10.05,4.57,28.87,28.87,0,0,1,8.75,11.2,35,35,0,0,1,2.58,8.59,38.25,38.25,0,0,1,.26,10.3,31.13,31.13,0,0,1-2.39,9.2,29.16,29.16,0,0,1-11.09,13.65,23.32,23.32,0,0,1-7.07,3,22.9,22.9,0,0,1-9.57.24,22.54,22.54,0,0,1-9.66-4.41,29.5,29.5,0,0,1-9.32-12.23,45.94,45.94,0,0,1-1.77-5.19,24.42,24.42,0,0,1-.59-3.35c-.19-1.38-.44-2.76-.5-4.14a16.62,16.62,0,0,1,.39-5.44,26.26,26.26,0,0,0,.5-3A29.21,29.21,0,0,1-676-80.53a28.7,28.7,0,0,1,8-9.78,22.46,22.46,0,0,1,8.12-4.18c.74-.2,1.49-.32,2.22-.53a2.65,2.65,0,0,0,.68-.5Z" transform="translate(679.85 95.52)"/><path class="cls-1" d="M-417.84,288.48c.16-.15.3-.38.48-.43,4.27-1.16,7.1-4.35,9-8.87a20.72,20.72,0,0,0,.58-2.29,4,4,0,0,1,.38-.7v12.29Z" transform="translate(679.85 95.52)"/><path class="cls-1" d="M-523.15,52.9a6.22,6.22,0,0,0-1.17.1,9.89,9.89,0,0,1-5.46-.48c-1.18-.34-2.32-.87-3.49-1.24a1.37,1.37,0,0,0-1,.2q-6.81,4.29-13.61,8.62l-11.27,7.1c-3.21,2-6.42,4-9.64,6.06-.83.52-.85.51-1.28-.42-1.16-2.5-2.3-5-3.45-7.51l-.51-1.14a3.54,3.54,0,0,1,.66-.68c3.44-2.18,6.88-4.32,10.32-6.49,2.93-1.85,5.85-3.73,8.78-5.59,2-1.29,4.08-2.57,6.12-3.88a14.7,14.7,0,0,0,1.19-.92l-3.6-1.3c-1.37-.49-2.74-1-4.11-1.45-1.13-.39-2.27-.76-3.4-1.14-.86-.29-1.73-.55-2.57-.9a1.61,1.61,0,0,0-1.89.34c-4.45,4-8.93,7.86-13.4,11.79-.72.63-1.41,1.3-2.15,1.88a.85.85,0,0,0-.24,1.25c1.22,2.47,2.4,5,3.6,7.45l8.23,17.1c.51,1.06,1,2.14,1.49,3.21A2.31,2.31,0,0,0-563.94,86c2.65,1.34,5.29,2.73,7.92,4.13,2.88,1.52,5.74,3.07,8.62,4.6l8.44,4.42q5.48,2.88,11,5.78c1.69.9,3.4,1.75,5,2.79a18.31,18.31,0,0,1,6.78,8.21,22.23,22.23,0,0,1,1.92,6.71q.39,3.15.83,6.29c.22,1.55.5,3.08.72,4.62.18,1.18.33,2.35.47,3.53.19,1.59.36,3.2.56,4.79s.47,3.26.71,4.89c0,.21.07.42.09.63q.92,6.81,1.82,13.62c.22,1.68.39,3.37.61,5.05s.5,3.25.74,4.88c.17,1.17.33,2.34.47,3.52.2,1.64.34,3.29.55,4.92s.48,3.08.7,4.63a36.8,36.8,0,0,1,.5,10.15,21.1,21.1,0,0,1-7.28,13.8,16.07,16.07,0,0,1-5.6,3.07,13.19,13.19,0,0,1-6.44.53c-6.18-1.19-10.87-4.87-13.63-11.68a19,19,0,0,1-1.32-5c-.32-2.68-.8-5.34-1.16-8-.53-4.08-1-8.17-1.54-12.25-.22-1.72-.53-3.43-.77-5.15-.17-1.17-.32-2.35-.46-3.53-.19-1.63-.35-3.28-.56-4.92s-.47-3.25-.71-4.88c0-.13,0-.25-.06-.38-.19-1.72-.36-3.45-.58-5.17-.2-1.55-.48-3.09-.7-4.64s-.43-3.1-.56-4.67a1.59,1.59,0,0,0-.88-1.44c-2.81-1.46-5.64-2.89-8.47-4.34l-11-5.68c-2.52-1.3-5-2.57-7.56-3.87-2.69-1.39-5.36-2.83-8.05-4.21-2.52-1.29-5.06-2.54-7.59-3.81l-1.73-.86c-.05.59-.11,1-.11,1.38q.06,22,.12,44c0,4.22,0,8.45,0,12.67a15.54,15.54,0,0,1-1.05,5.41c-2,5.35-4.09,10.67-6.17,16-1.71,4.36-3.48,8.68-5.21,13-1.6,4.05-3.15,8.12-4.75,12.16-2,5.11-4.1,10.2-6.14,15.31-2.12,5.33-4.26,10.66-6.32,16a31.1,31.1,0,0,1-3.1,6.5,17.45,17.45,0,0,1-6.91,6,14.17,14.17,0,0,1-6.83,1.57A16.15,16.15,0,0,1-649,262.78a20.12,20.12,0,0,1-5.69-9.16,23.66,23.66,0,0,1-.76-10.8,42,42,0,0,1,2.5-8c1-2.62,2.06-5.2,3.09-7.8,1.93-4.84,3.86-9.67,5.77-14.53,1.56-4,3.05-8,4.62-11.95,2-5.2,4.13-10.37,6.18-15.57,1.11-2.82,2.16-5.67,3.25-8.5,1-2.46,1.94-4.9,2.89-7.37a4.62,4.62,0,0,0,.3-1.44c.27-6,.54-12,.76-18,.1-2.86.12-5.72.12-8.58,0-7.63,0-15.27,0-22.91,0-3.92-.28-7.84-.47-11.75-.08-1.7-.24-3.39-.43-5.07-.26-2.27-.54-4.55-.89-6.8-.26-1.71-.63-3.4-1-5.09a13.66,13.66,0,0,0-.59-1.62,1.35,1.35,0,0,1-.17-.46c-.08-2.71-1.09-5.13-1.74-7.65-1.14-4.37-2.64-8.58-4.09-12.8q-2.54-7.39-5.4-14.6c-1.85-4.61-3.65-9.24-5.44-13.88s-3.62-9.44-5.37-14.2c-.87-2.35-1.62-4.76-2.38-7.16-.88-2.73-1.75-5.46-2.54-8.22-.46-1.6-.79-3.26-1.1-4.91-.42-2.19-.82-4.38-1.13-6.6a32.45,32.45,0,0,1-.18-3.57,29.07,29.07,0,0,1,.48-6.59,10.14,10.14,0,0,1,1.63-3.52A52,52,0,0,1-649-25.59a78.59,78.59,0,0,1,10.87-8.71A69.7,69.7,0,0,1-630-39a42.12,42.12,0,0,1,8-2.94,17.48,17.48,0,0,1,9.54.15,31.37,31.37,0,0,1,9.93,5,37.19,37.19,0,0,1,5.74,5.5q8.69,10.11,17.4,20.2L-565,5.76a5.52,5.52,0,0,0,2.69,1.73c1.84.58,3.65,1.28,5.48,1.91s3.65,1.23,5.47,1.86c1.2.41,2.39.86,3.59,1.3.61.22,1.22.47,1.84.67.37.12.64-.08,1-.37,2.36-2.12,4.74-4.19,7.12-6.28l9.2-8,12.69-11.06c6-5.27,12.07-10.52,18.09-15.81,4.33-3.8,8.61-7.66,12.93-11.45q11.49-10.08,23-20.12L-450-70.34a5.37,5.37,0,0,1,.53-.44c.39-.3.72-.27,1,.2l4.86,7.71c.28.44.14.74-.22,1-1.33,1.14-2.63,2.33-4,3.48l-12,10.48c-5.8,5.08-11.57,10.18-17.37,15.25s-11.5,10-17.24,15Q-503.26-9.82-512.1-2l-19.68,17.31c-.49.43-1,.83-1.47,1.27a6.7,6.7,0,0,0-.64.78c1.25.46,2.36.9,3.48,1.29,1.82.63,3.65,1.21,5.47,1.85,1.21.42,2.4.89,3.6,1.33a13.36,13.36,0,0,1,6.27,5.49,15.22,15.22,0,0,1,2.37,6.17,19.38,19.38,0,0,1-.21,7.84,26,26,0,0,1-1.34,3.84,5.56,5.56,0,0,0,0,3.13c.22,1.59.48,3.17.73,4.76s.5,3,.74,4.48c.17,1,.34,2.08.48,3.13.2,1.38.36,2.77.57,4.14s.45,2.83.68,4.25c.18,1.17.38,2.33.55,3.5.36,2.43.69,4.87,1.06,7.3.23,1.55.53,3.08.79,4.63.17,1,.32,2.08.47,3.13.19,1.42.35,2.85.56,4.27s.49,2.82.72,4.23c.17,1,.34,2.08.48,3.13.2,1.42.36,2.85.57,4.27s.49,2.91.73,4.37c.18,1.13.36,2.26.52,3.39.37,2.52.7,5,1.08,7.56s.82,4.82,1.2,7.24c.21,1.37.35,2.76.56,4.14s.48,2.91.71,4.36c.18,1.08.37,2.16.51,3.25.2,1.47.36,2.94.56,4.41.14,1,.31,2,.47,3,.41,2.51.84,5,1.23,7.53.24,1.5.4,3,.63,4.53s.49,2.82.73,4.23c.17,1,.34,2.08.48,3.13.19,1.42.34,2.86.54,4.28s.45,2.74.68,4.15a2.65,2.65,0,0,1-1.67.75c-.57.09-1.13.23-1.7.34l-5.69,1.17a13.07,13.07,0,0,1-.68-2.94c-.27-1.71-.55-3.42-.81-5.13-.2-1.38-.36-2.77-.57-4.14s-.49-3-.73-4.49c-.17-1.08-.35-2.16-.51-3.25-.2-1.42-.35-2.85-.56-4.27s-.48-2.83-.71-4.25-.39-2.59-.59-3.89c-.44-2.8-.89-5.6-1.33-8.41-.19-1.25-.33-2.51-.52-3.77-.24-1.62-.52-3.24-.78-4.86-.16-1-.31-2-.45-3-.19-1.38-.36-2.76-.57-4.14s-.46-2.92-.7-4.37c-.17-1.13-.36-2.25-.53-3.38-.35-2.43-.68-4.87-1.05-7.3-.24-1.55-.53-3.09-.79-4.63-.17-1-.32-2.08-.47-3.13-.2-1.42-.35-2.86-.57-4.27s-.48-2.82-.72-4.24c-.17-1-.33-2.08-.48-3.12-.19-1.38-.36-2.77-.56-4.15s-.49-3-.73-4.49c-.2-1.26-.39-2.52-.57-3.77-.36-2.48-.71-5-1.07-7.44-.29-2-.57-3.93-.88-5.89S-522.8,55-523.15,52.9Zm-72.3-32c3.9,8.65,7.94,17.12,12.06,25.58a3.57,3.57,0,0,0,.5-.31q4.57-4,9.13-8a2.32,2.32,0,0,0,.3-.65,31.48,31.48,0,0,0-3-1.12,10.29,10.29,0,0,1-4.29-2.52c-.84-.77-1.59-1.69-2.44-2.45-3.75-3.3-7.52-6.57-11.28-9.85C-594.8,21.3-595.13,21.09-595.45,20.85Z" transform="translate(679.85 95.52)"/></svg>