<svg id="Capa_1" data-name="Capa 1" xmlns="http://www.w3.org/2000/svg" viewBox="0 0 100 100"><defs><style>.cls-1{fill:#fff;}</style></defs><title>trekkingiconinter</title><path class="cls-1" d="M-526.83-68.16a50,50,0,0,0-50,50,50,50,0,0,0,50,50,50,50,0,0,0,50-50A50,50,0,0,0-526.83-68.16Zm1.47,5.22a3.5,3.5,0,0,0,.55-.17h2.35a11.18,11.18,0,0,1,4.64,2.17,8.9,8.9,0,0,1-.08,13.62,8.92,8.92,0,0,1-14.56-5.33A9,9,0,0,1-525.36-62.94ZM-557.69-27.5a24.52,24.52,0,0,1,7.77-14.32,13.45,13.45,0,0,1,8.43-3.29c1.25-.08,2.5,0,3.84,0-.18.65-.34,1.23-.52,1.81C-540-37-542-30.8-543.78-24.52a4.93,4.93,0,0,1-4.93,4,11,11,0,0,1-7.6-2.62A4.36,4.36,0,0,1-557.69-27.5Zm22.77,25.37c-1.17,4.8-3.32,9.24-5.08,13.82-1,2.63-2.13,5.22-3.11,7.86a4.88,4.88,0,0,1-3.18,3.36h-1.19c-1.65-.52-2.84-1.49-2.95-3.32a4.84,4.84,0,0,1,.38-2c2-5.15,4.16-10.23,6.08-15.42A37.44,37.44,0,0,0-542.62-4c.38-2,.67-4.19,1-6.29a5.86,5.86,0,0,0,2,3.17c1.4,1.25,2.8,2.49,4.25,3.68A1.05,1.05,0,0,1-534.92-2.13Zm36.82-29.56a2.63,2.63,0,0,1-.84.56c-1.22.34-1.41,1.14-1.41,2.32q.06,25.3,0,50.63c0,.36,0,.73,0,1.09H-504c0-.23,0-.45,0-.67v-50c0-.25,0-.49-.05-.84-.32.15-.57.25-.81.37l-7.65,3.81c-2.17,1.08-3.61.84-5.27-.89l-6.08-6.27c-.17-.18-.36-.36-.62-.6-1.27,5.25-2.51,10.35-3.73,15.45a1.15,1.15,0,0,0,.13.85c2.76,3.58,5.51,7.19,8.37,10.71a5.6,5.6,0,0,1,1.4,3.73c0,6.54,0,13.09,0,19.64,0,2.8-.52,3.59-3,4.66h-1.36c-.45-.22-.88-.46-1.3-.72a3.91,3.91,0,0,1-1.52-3.46c0-6,0-12.09,0-18.14A1.78,1.78,0,0,0-526.16-1q-5.88-4.81-11.7-9.7A9,9,0,0,1-541-19.87c.66-3.19,1.65-6.32,2.55-9.46,1.38-4.83,2.81-9.66,4.22-14.48.05-.19.12-.37.22-.64,1.74.41,3.47.81,5.19,1.23l3.18.77a5.89,5.89,0,0,1,3,1.75c2.87,3,5.77,6,8.7,9.05l4.6-2.29c1.52-.76,3.08-1.58,4.65-2.31a1.15,1.15,0,0,0,.77-1.27c-.05-1.31,0-2.62,0-4h3.61c0,1,0,1.9,0,2.84,0,.5.12.71.67.8a3.29,3.29,0,0,1,2.76,2.6A3.36,3.36,0,0,1-498.1-31.69Z" transform="translate(576.83 68.16)"/></svg>